<svg width="2500" height="600" viewBox="0 0 2500 600" fill="none" xmlns="http://www.w3.org/2000/svg">
<g clip-path="url(#clip0_1116_640)">
<path d="M0 287.654C0 217.589 32.7701 176.226 88.5817 176.226C145.417 176.226 170.379 210.904 170.379 258.48V320.446H111.239V275.072C111.239 243.853 101.831 230.564 87.1096 230.564C72.3246 230.564 62.98 247.077 62.98 279.319V506.815C62.98 531.507 70.4685 545.583 87.1096 545.583C104.007 545.583 111.239 530.642 111.239 505.085V455.701H170.379V518.375C170.379 580.891 128.136 600 89.0937 600C41.5387 600 0 573.657 0 496.986V287.654ZM209.677 266.186C209.677 205.085 239.887 176.226 299.539 176.226C357.207 176.226 388.889 204.22 388.889 276.724V595.046H329.749V552.032C322.453 561.153 318.292 569.332 311.636 577.589C300.179 591.429 282.898 599.843 266.641 599.843C229.199 599.843 205.005 585.767 205.005 486.763C205.005 403.644 210.445 384.535 227.919 362.281C242.512 343.486 253.328 336.802 325.781 336.802V269.882C325.781 246.134 321.173 230.328 299.539 230.328C282.258 230.328 272.657 239.528 272.657 265.085V302.831H209.677V266.186ZM305.62 391.533C276.05 391.533 268.049 411.114 268.049 476.225C268.049 537.248 272.593 545.662 292.819 545.662C314.388 545.662 325.717 525.688 325.717 497.693V391.533H305.62ZM432.028 181.101H491.039V224.194H492.383C507.04 185.269 517.921 176.226 548.707 176.226V253.604C517.281 253.604 495.008 264.378 495.008 307.313V595.125H432.028V181.101ZM576.165 287.654C576.165 217.589 609.063 176.226 667.563 176.226C717.742 176.226 759.409 202.569 759.409 279.319V412.687H639.401V501.075C639.401 539.686 650.154 550.459 670.187 550.459C693.612 550.459 700.269 530.013 700.269 496.986V459.004H759.409V517.431C759.409 559.423 735.279 599.921 665.643 599.921C617.832 599.921 576.229 573.578 576.229 496.907C576.165 496.986 576.165 287.654 576.165 287.654ZM639.401 358.27H700.269V277.667C700.269 240.708 691.756 225.767 670.187 225.767C646.761 225.767 639.401 241.337 639.401 271.14V358.27ZM798.515 287.654C798.515 217.589 831.285 176.226 889.721 176.226C939.9 176.226 981.631 202.569 981.631 279.319V412.687H861.495V501.075C861.495 539.686 872.184 550.459 892.409 550.459C915.835 550.459 922.619 530.013 922.619 496.986V459.004H981.631V517.431C981.631 559.423 957.373 599.921 887.737 599.921C840.054 599.921 798.515 573.578 798.515 496.907V287.654ZM861.495 358.27H922.555V277.667C922.555 240.708 913.786 225.767 892.345 225.767C868.792 225.767 861.431 241.337 861.431 271.14L861.495 358.27ZM1022.66 181.101H1081.67V224.194H1083.14C1097.8 185.269 1108.55 176.226 1139.53 176.226V253.604C1107.85 253.604 1085.83 264.378 1085.83 307.313V595.125H1022.59L1022.66 181.101ZM1643.31 93.814C1663.59 93.814 1680.24 73.3684 1680.24 48.2832C1680.24 23.198 1663.59 2.90967 1643.31 2.90967C1622.76 2.90967 1606.31 23.2766 1606.31 48.2832C1606.31 73.2897 1622.76 93.814 1643.31 93.814Z" fill="#9DACFF"/>
<path d="M1168.71 0H1231.82V210.904H1233.1C1238.61 199.266 1247.38 190.301 1257.36 184.482C1267.47 178.82 1278.8 176.304 1288.79 176.304C1325.72 176.304 1348.05 210.983 1348.05 272.005V504.377C1348.05 565.242 1325.78 600.079 1288.79 600.079C1263.5 600.079 1241.23 585.059 1229.13 565.242H1227.85V595.203H1168.71V0ZM1284.82 286.632C1284.82 242.28 1274.71 230.642 1260.75 230.642C1243.28 230.642 1231.82 247.156 1231.82 298.427V506.894C1231.82 537.169 1244.5 550.459 1257.3 550.459C1274.07 550.459 1284.75 539.135 1284.75 491.166L1284.82 286.632ZM1567.91 595.124H1508.9V560.446H1507.62C1501.54 572.713 1493.66 582.857 1483.49 589.227C1473.5 596.619 1461.92 600 1449.31 600C1417.63 600 1390.3 579.397 1390.3 518.375V181.101H1453.28V503.434C1453.28 524.902 1457.95 540.786 1477.41 540.786C1492.83 540.786 1504.86 529.148 1504.86 497.064V181.101H1567.84L1567.91 595.124ZM1612.26 181.101H1675.24V594.967H1612.26V181.101ZM1720.43 0H1783.54V595.124H1720.43V0ZM1827.06 271.927C1827.06 210.904 1849.14 176.225 1885.94 176.225C1896.06 176.225 1907.58 178.742 1917.63 184.404C1927.61 190.301 1936.38 199.187 1941.63 210.826H1942.97V0H2006.08V595.124H1947.13V565.164H1945.66C1939 575.937 1929.66 584.98 1918.78 590.721C1908.79 596.619 1897.34 599.921 1885.88 599.921C1849.01 599.921 1827 565.085 1827 504.22L1827.06 271.927ZM1889.91 491.166C1889.91 539.135 1900.73 550.459 1917.63 550.459C1930.3 550.459 1943.04 537.169 1943.04 506.894V298.427C1943.04 247.156 1931.71 230.642 1914.23 230.642C1900.15 230.642 1889.98 242.28 1889.98 286.632L1889.91 491.166ZM2046.98 287.654C2046.98 217.588 2079.75 176.225 2138.25 176.225C2188.43 176.225 2230.03 202.569 2230.03 279.318V412.687H2109.9V501.075C2109.9 539.685 2120.71 550.459 2140.81 550.459C2164.23 550.459 2171.02 530.013 2171.02 496.986V459.004H2230.03V517.431C2230.03 559.423 2205.9 599.921 2136.14 599.921C2088.45 599.921 2046.98 573.578 2046.98 496.907V287.654ZM2109.96 358.27H2171.08V277.667C2171.08 240.708 2162.44 225.767 2140.87 225.767C2117.45 225.767 2109.96 241.337 2109.96 271.14V358.27ZM2271.31 181.101H2330.2V224.194H2331.54C2346.39 185.269 2357.01 176.225 2387.86 176.225V253.604C2356.44 253.604 2334.17 264.377 2334.17 307.313V595.046H2271.31V181.101ZM2457.37 174.889C2480.99 174.889 2500.06 198.322 2500.06 227.104C2500.06 255.885 2480.99 279.633 2457.37 279.633C2434.08 279.633 2414.87 255.885 2414.87 227.104C2414.87 198.244 2434.01 174.889 2457.37 174.889ZM2457.37 269.174C2476.19 269.174 2490.91 250.773 2490.91 227.104C2490.91 203.827 2476.25 185.269 2457.37 185.269C2438.43 185.269 2424.03 203.827 2424.03 227.104C2424.03 250.773 2438.43 269.174 2457.37 269.174ZM2454.81 231.193H2447.13V256.986H2438.81V197.143H2457.95C2469.98 197.143 2476.25 202.097 2476.25 214.443C2476.25 225.452 2470.62 229.777 2463.97 230.17L2477.09 256.986H2467.49L2454.81 231.193ZM2455.9 222.621C2462.05 222.621 2467.23 221.992 2467.23 213.499C2467.23 206.737 2461.28 205.714 2456.48 205.714H2447.13V222.621H2455.9Z" fill="#384348"/>
</g>
<defs>
<clipPath id="clip0_1116_640">
<rect width="2500" height="600" fill="white"/>
</clipPath>
</defs>
</svg>
