<svg width="534" height="67" viewBox="0 0 534 67" fill="none" xmlns="http://www.w3.org/2000/svg">
<path d="M15.2823 1.93942C8.34894 4.60608 2.74894 10.2061 1.01561 16.6061C0.215606 19.5394 -0.184394 28.7394 0.0822726 36.8728C0.482273 50.6061 0.748939 51.9394 4.21561 56.4728C10.6156 64.8728 14.2156 66.0728 33.8156 66.0728H51.1489V57.5394C51.1489 48.8728 51.1489 48.8728 46.8823 47.8061L42.4823 46.6061V33.4061V20.2061L46.8823 19.0061C51.1489 17.9394 51.1489 17.9394 51.1489 9.27275V0.739417L35.8156 0.47275C25.4156 0.206084 18.8823 0.739417 15.2823 1.93942Z" fill="#21282B"/>
<path d="M55.149 1.67275C54.749 2.60608 54.6156 17.5394 54.749 34.7394L55.149 66.0728H73.8156C90.2156 66.0728 93.0156 65.6728 97.149 63.4061C107.016 57.6728 109.282 43.9394 101.682 35.8061C99.0156 33.0061 98.349 31.5394 99.549 31.1394C102.216 30.2061 105.149 23.2728 105.149 18.0728C105.149 11.5394 101.949 5.93942 96.749 3.13942C91.0156 -0.0605829 56.2156 -1.26058 55.149 1.67275Z" fill="#21282B"/>
<path d="M517.949 5.53934C515.949 7.13934 514.482 9.53934 514.482 11.5393C514.482 15.5393 519.949 21.406 523.816 21.406C527.682 21.406 533.149 15.5393 533.149 11.5393C533.149 7.93934 527.682 2.73934 523.816 2.73934C522.482 2.73934 519.949 3.93934 517.949 5.53934ZM528.482 8.07267C533.816 14.0727 525.816 22.0727 519.816 16.7393C516.616 13.806 516.349 10.3393 519.282 7.53934C522.082 4.606 525.549 4.87267 528.482 8.07267Z" fill="#21282B"/>
<path d="M521.149 11.9394C521.149 15.1394 521.682 15.806 523.816 15.6727C525.816 15.5394 526.482 14.606 526.482 11.806C526.482 9.00603 525.816 8.0727 523.816 8.0727C521.816 8.0727 521.149 9.00603 521.149 11.9394Z" fill="#21282B"/>
<path d="M395.416 11.6728C393.816 13.2728 394.482 18.3395 396.482 20.0728C401.149 23.9395 407.816 16.6061 403.549 12.3395C401.816 10.6061 396.882 10.2061 395.416 11.6728Z" fill="#21282B"/>
<path d="M145.549 14.0727C138.882 17.006 136.882 22.4727 137.416 36.206C137.816 46.3394 138.216 48.3394 141.016 51.2727C150.216 61.1394 170.482 56.4727 170.482 44.606C170.482 41.806 169.816 41.406 165.416 41.406C161.549 41.406 160.216 42.0727 159.149 44.3394C157.682 47.806 152.616 49.006 149.682 46.7394C147.016 44.4727 147.016 25.006 149.682 22.8727C152.882 20.206 159.016 21.5394 159.549 25.006C159.949 27.5394 160.882 28.0727 165.282 28.0727C169.816 28.0727 170.482 27.6727 170.482 25.006C170.482 15.2727 156.749 9.13937 145.549 14.0727Z" fill="#21282B"/>
<path d="M323.549 12.8728C322.882 13.4061 322.482 23.4061 322.482 35.0061V56.0728H334.482C347.149 56.0728 353.416 54.2061 355.016 50.0728C356.749 45.5394 355.816 39.1394 353.149 36.7394C350.882 34.6061 350.749 33.9394 352.216 32.2061C353.282 31.0061 354.482 28.8728 355.016 27.5394C356.216 23.9394 353.416 16.3394 350.082 14.6061C346.749 12.7394 324.882 11.2728 323.549 12.8728ZM343.549 22.6061C346.616 24.4728 344.749 28.4728 340.482 29.6728C334.882 31.1394 333.149 30.2061 333.149 25.4061C333.149 21.8061 333.549 21.4061 337.549 21.4061C339.816 21.4061 342.616 21.9394 343.549 22.6061ZM344.882 42.6061C345.416 46.4728 343.282 48.0728 337.549 48.0728C333.416 48.0728 333.149 47.8061 333.149 43.2728V38.6061L338.882 39.0061C343.682 39.4061 344.616 39.9394 344.882 42.6061Z" fill="#21282B"/>
<path d="M410.082 13.0061C409.549 13.4061 409.149 23.4061 409.149 35.0061V56.0728H414.482H419.816V34.0728V12.0728H415.416C412.882 12.0728 410.482 12.4728 410.082 13.0061Z" fill="#21282B"/>
<path d="M445.149 19.6727C445.149 25.5394 444.749 26.8727 443.549 25.6727C442.616 24.7394 439.682 24.0727 436.882 24.0727C427.816 24.0727 422.216 33.2727 424.349 44.606C426.216 54.3394 435.149 59.9394 441.816 55.5394C443.682 54.3394 445.149 53.9394 445.149 54.7394C445.149 55.406 447.282 56.0727 449.816 56.0727H454.482V34.0727V12.0727H449.816H445.149V19.6727ZM443.282 35.406C445.016 38.0727 445.282 39.806 444.349 43.1394C442.749 48.4727 438.082 49.6727 435.816 45.406C433.949 41.9394 435.149 33.9394 437.549 33.006C440.482 31.806 441.016 32.0727 443.282 35.406Z" fill="#21282B"/>
<path d="M177.682 27.1394C173.016 31.1394 174.082 34.7394 179.816 34.7394C182.082 34.7394 185.016 34.0727 186.349 33.1394C188.349 31.9394 189.416 31.9394 191.016 33.2727C194.349 36.0727 193.549 37.406 188.482 37.406C180.616 37.406 174.882 40.606 173.816 45.2727C171.949 54.0727 182.216 60.606 189.816 55.5394C191.682 54.3394 193.149 53.9394 193.149 54.7394C193.149 55.406 195.549 56.0727 198.482 56.0727H203.816V43.9394C203.816 32.3394 203.682 31.6727 199.949 27.9394C196.616 24.606 195.016 24.0727 188.616 24.0727C182.882 24.0727 180.482 24.7394 177.682 27.1394ZM193.149 44.4727C193.149 48.606 186.349 51.1394 184.349 47.806C183.282 46.0727 187.282 42.7394 190.749 42.7394C192.082 42.7394 193.149 43.5394 193.149 44.4727Z" fill="#21282B"/>
<path d="M207.816 40.0728V56.0728H213.149H218.349L218.749 45.6728L219.149 35.4061L223.282 35.0061C226.749 34.6061 227.682 33.9394 228.349 30.4728C228.749 28.2061 229.149 25.9394 229.149 25.2728C229.149 23.5394 221.949 23.8061 220.082 25.6728C218.882 26.8728 218.482 26.8728 218.482 25.6728C218.482 24.7394 216.349 24.0728 213.149 24.0728H207.816V40.0728Z" fill="#21282B"/>
<path d="M235.016 28.6061C231.149 32.4728 230.482 34.0728 230.482 39.4061C230.482 46.4728 233.416 52.3395 238.216 55.0061C242.749 57.4061 252.216 57.0061 256.482 54.2061L260.082 51.8061L257.016 48.6061C255.016 46.4728 253.549 45.8061 252.616 46.7395C249.682 49.6728 241.149 47.4061 241.149 43.8061C241.149 43.2728 245.682 42.7395 251.149 42.7395C262.349 42.7395 263.016 41.9395 259.282 32.8728C256.749 26.8728 252.349 24.0728 245.416 24.0728C240.482 24.0728 238.749 24.8728 235.016 28.6061ZM247.949 33.4061C251.949 35.5395 251.016 37.4061 245.816 37.4061C240.882 37.4061 240.082 36.3395 242.749 33.6728C244.749 31.6728 244.749 31.6728 247.949 33.4061Z" fill="#21282B"/>
<path d="M269.149 27.8062C258.616 38.4728 265.682 56.7395 280.349 56.7395C285.816 56.7395 293.149 54.0728 293.149 51.9395C293.149 51.4062 291.949 49.6728 290.616 47.9395C288.482 45.4062 287.682 45.0062 286.349 46.3395C283.016 49.5395 274.482 47.6728 274.482 43.8062C274.482 43.2728 279.016 42.7395 284.482 42.7395H294.482V37.9395C294.482 34.2062 293.416 32.0728 289.949 28.6062C286.082 24.7395 284.482 24.0728 279.149 24.0728C274.082 24.0728 272.216 24.7395 269.149 27.8062ZM282.216 33.6728C284.882 36.3395 284.082 37.4062 279.149 37.4062C276.616 37.4062 274.482 36.8728 274.482 36.3395C274.482 34.7395 277.416 32.0728 279.149 32.0728C279.949 32.0728 281.282 32.7395 282.216 33.6728Z" fill="#21282B"/>
<path d="M298.482 40.0728V56.0728H303.816H309.016L309.416 45.6728L309.816 35.4061L314.216 35.0061C317.149 34.7394 318.482 33.9394 318.482 32.3394C318.482 31.1394 318.882 28.7394 319.282 27.0061C320.082 24.4728 319.682 24.0728 316.216 24.0728C314.082 24.0728 311.682 24.7394 310.749 25.6728C309.549 26.8728 309.149 26.8728 309.149 25.6728C309.149 24.7394 307.016 24.0728 303.816 24.0728H298.482V40.0728Z" fill="#21282B"/>
<path d="M360.082 37.2727C360.349 47.6727 361.015 51.0061 362.882 53.1394C366.349 56.8727 371.282 57.8061 375.949 55.5394C378.082 54.4727 379.815 54.2061 379.815 54.8727C379.815 55.5394 381.949 56.0727 384.482 56.0727H389.149V40.0727V24.0727H384.482H379.815V33.8061C379.815 45.0061 377.682 49.8061 373.549 47.2727C371.549 46.0727 371.015 43.6727 370.749 34.8727L370.349 24.0727H365.015H359.549L360.082 37.2727Z" fill="#21282B"/>
<path d="M394.482 40.0728V56.0728H399.816H405.149V40.0728V24.0728H399.816H394.482V40.0728Z" fill="#21282B"/>
<path d="M465.682 26.4728C461.549 29.8061 459.816 33.8061 459.816 40.3394C459.816 54.6061 473.682 61.6728 486.216 53.8061L489.416 51.8061L486.482 48.7394C483.949 46.0728 483.149 45.9394 479.682 47.1394C475.549 48.7394 471.816 47.5394 470.749 44.3394C470.349 43.1394 473.282 42.7394 480.482 42.7394H490.882L489.949 38.6061C489.549 36.3394 489.149 33.9394 489.149 33.4061C489.149 32.7394 487.282 30.4728 485.016 28.2061C481.682 24.7394 479.949 24.0728 474.749 24.0728C470.882 24.0728 467.416 25.0061 465.682 26.4728ZM477.682 34.2061C480.616 37.1394 480.482 37.4061 475.149 37.4061C469.016 37.4061 468.749 32.8728 474.749 32.2061C475.282 32.0728 476.616 33.0061 477.682 34.2061Z" fill="#21282B"/>
<path d="M494.482 40.0728V56.0728H499.149H503.816V47.0061C503.816 37.4061 505.149 34.7394 509.949 34.7394C513.016 34.7394 514.482 32.4728 514.482 27.2728C514.482 24.6061 513.816 24.0728 510.749 24.0728C508.749 24.0728 506.349 24.7394 505.416 25.6728C504.216 26.8728 503.816 26.8728 503.816 25.6728C503.816 24.7394 501.949 24.0728 499.149 24.0728H494.482V40.0728Z" fill="#21282B"/>
</svg>
