<svg width="2500" height="600" viewBox="0 0 2500 600" fill="none" xmlns="http://www.w3.org/2000/svg">
<g clip-path="url(#clip0_1116_637)">
<path fill-rule="evenodd" clip-rule="evenodd" d="M338.898 0.0703481C312.321 0.714109 285.573 5.78142 260.145 14.1411C161.669 51.6448 93.1858 133.476 62.2046 231.659C56.9739 250.089 52.7309 268.537 50.4532 287.574C50.4532 288.19 48.8204 306.933 51.7533 301.874C54.6861 297.423 55.9862 290.866 57.6189 285.799C72.6157 239.687 90.898 197.723 118.936 157.856C186.119 67.6836 294.049 9.67158 408.167 41.8136C429.372 48.3432 448.28 57.88 467.187 69.1826C470.765 71.5646 497.18 90.6107 491.315 73.3487C486.427 59.6826 474.04 48.0489 463.266 38.8247C427.004 10.1866 383.203 -1.00565 338.898 0.0703481ZM1171.81 90.2888C1156.49 90.2888 1144.76 95.071 1136.6 104.893C1128.11 114.402 1124.21 128.694 1124.21 147.446V283.132C1105.29 264.095 1085.74 250.392 1065.86 241.149C1052.17 235.121 1037.52 231.107 1022.46 229.258C1012.52 228.04 1002.51 227.447 992.485 227.483C942.597 227.483 901.83 243.531 871.191 275.655C840.523 307.797 825.203 352.447 825.203 409.87C825.203 436.954 829.134 462.226 836.622 485.438C844.463 508.65 855.862 528.874 870.859 546.136C885.282 562.824 903.526 576.436 924.315 586.021C944.865 595.218 967.027 600 991.165 600C1001.94 600 1012.37 599.08 1022.46 597.305C1028.87 596.383 1035.2 594.996 1041.38 593.158C1056.65 588.406 1071.05 581.586 1084.1 572.925C1097.48 563.986 1110.51 552.389 1124.21 538.41V547.313C1124.21 564.299 1128.79 577.091 1137.57 586.306C1146.37 595.227 1158.13 600 1171.81 600C1185.18 600 1196.92 595.54 1205.73 586.904C1214.53 577.974 1218.76 564.897 1218.76 547.313V142.663C1218.76 125.714 1214.86 112.618 1206.69 103.688C1198.24 94.7675 1186.49 90.2888 1171.81 90.2888ZM2402.39 90.2888C2387.07 90.2888 2375.33 95.071 2367.19 104.893C2359.02 114.402 2354.79 128.694 2354.79 147.446V283.132C2335.88 264.095 2316.31 250.392 2296.43 241.149C2284.04 235.494 2269.37 231.355 2253.06 229.258C2243.11 228.038 2233.09 227.445 2223.05 227.483C2173.19 227.483 2132.75 243.531 2101.76 275.655C2071.12 307.797 2055.78 352.447 2055.78 409.87C2055.78 436.954 2059.69 462.226 2067.51 485.438C2075.33 508.65 2086.42 528.874 2101.43 546.136C2115.86 562.83 2134.11 576.444 2154.91 586.021C2175.44 595.218 2197.64 600 2221.76 600C2232.83 600 2243.27 599.08 2253.06 597.305C2259.59 596.423 2265.76 594.942 2271.95 593.158C2287.22 588.408 2301.62 581.587 2314.67 572.925C2328.05 563.986 2341.42 552.389 2354.78 538.41V547.313C2354.78 564.299 2359.34 577.091 2368.15 586.306C2377.28 595.227 2388.69 600 2402.38 600C2416.42 600 2427.81 595.54 2436.64 586.904C2445.44 577.974 2450 564.897 2450 547.313V142.663C2450 125.714 2445.77 112.618 2437.62 103.688C2429.14 94.7675 2417.74 90.2888 2402.39 90.2888ZM313.198 115.074C299.414 114.744 285.762 117.588 273.499 123.341C232.742 142.075 216.425 187.598 237.297 224.789C257.837 261.989 307.705 276.878 348.473 257.841C389.23 239.089 405.537 193.566 384.675 156.394C377.973 144.249 367.785 133.992 355.198 126.715C342.61 119.438 328.095 115.415 313.198 115.074ZM1449.3 226.279C1420.28 226.582 1393.87 231.042 1369.74 239.356C1344.95 248.304 1324.1 261.106 1307.14 277.476C1290.17 294.122 1277.13 314.078 1268.32 337.272C1259.51 360.493 1254.96 385.784 1254.96 412.85C1254.96 470.577 1273.22 515.787 1309.08 549.4C1342.99 581.257 1389.64 597.903 1449.3 599.678C1452.88 599.991 1456.14 600 1459.73 600C1488.1 600 1512.89 596.717 1534.74 589.884C1556.58 583.023 1574.51 574.709 1588.85 564.575C1603.53 554.183 1613.96 543.459 1621.15 532.442C1628.32 521.443 1631.89 511.63 1631.89 503.601C1631.89 494.377 1628.65 486.937 1622.45 481.861C1615.95 476.821 1607.44 474.126 1597.33 474.126C1587.56 474.126 1580.4 476.223 1575.16 480.086C1565.13 488.799 1554.92 497.332 1544.52 505.68C1536.31 511.979 1527.71 517.837 1518.75 523.227C1509.28 528.579 1499.84 532.764 1489.73 535.137C1479.95 537.804 1468.86 538.999 1456.8 538.999C1454.18 538.999 1451.58 538.999 1449.3 538.696C1434.31 537.804 1420.28 533.941 1407.58 526.786C1392.89 518.767 1380.82 506.875 1372.04 491.398C1362.9 475.331 1358.32 456.883 1358 436.062H1554.94C1581.05 436.062 1601.58 432.494 1616.24 425.946C1630.6 418.809 1637.78 403.92 1637.78 381.011C1637.78 356.015 1630.92 331.625 1616.9 307.53C1602.88 283.711 1581.69 264.095 1553.65 248.893C1525.59 233.737 1491.67 226.279 1452.57 226.279H1449.3ZM1852.01 226.279C1822.98 226.582 1796.24 231.042 1772.45 239.356C1747.65 248.304 1726.79 261.106 1709.49 277.476C1692.86 294.122 1679.84 314.078 1671.05 337.272C1662.23 360.493 1657.66 385.784 1657.66 412.85C1657.66 470.577 1675.59 515.787 1711.46 549.4C1745.36 581.257 1792.33 597.903 1852.01 599.678C1855.28 599.991 1858.83 600 1862.42 600C1890.47 600 1915.58 596.717 1937.42 589.884C1959.26 583.023 1977.2 574.709 1991.54 564.575C2005.91 554.183 2016.65 543.459 2023.83 532.442C2031 521.443 2034.6 511.63 2034.6 503.601C2034.6 494.377 2031.32 486.937 2024.8 481.861C2018.61 476.821 2010.15 474.126 1999.71 474.126C1990.23 474.126 1983.07 476.223 1977.85 480.086C1965.13 490.8 1955.05 499.426 1947.22 505.68C1938.89 511.981 1930.18 517.84 1921.11 523.227C1912.01 528.579 1902.21 532.764 1892.44 535.137C1882.31 537.804 1871.58 538.999 1859.5 538.999C1856.88 538.999 1854.28 538.999 1852.01 538.696C1837 537.804 1822.97 533.941 1810.25 526.786C1795.25 518.767 1783.51 506.875 1774.39 491.398C1765.58 475.331 1761.01 456.883 1760.68 436.062H1957.3C1983.72 436.062 2004.26 432.494 2018.61 425.946C2033.3 418.809 2040.44 403.92 2040.44 381.011C2040.44 356.015 2033.3 331.625 2019.27 307.53C2005.25 283.711 1984.37 264.095 1956 248.893C1927.95 233.737 1894.39 226.279 1854.92 226.279H1852.01ZM482.516 226.895C467.842 226.895 456.413 231.346 448.27 239.972C439.794 248.304 435.551 261.4 435.551 278.947V544.048C435.551 561.889 440.116 575.887 449.56 585.414C459.033 595.218 470.755 600 485.439 600C500.436 600 512.489 595.218 521.963 586.021C531.417 576.494 536.315 562.781 536.315 544.048V429.505C536.315 391.707 538.593 366.425 543.481 352.732C550.324 335.488 561.43 322.107 576.094 312.285C590.779 302.757 607.076 297.699 625.015 297.699C652.378 297.699 670.973 305.737 680.114 321.785C689.235 337.87 693.821 361.054 693.821 391.422V544.048C693.821 561.889 698.366 575.887 707.83 585.414C717.273 595.218 729.347 600 744.344 600C759.008 600 771.072 595.218 780.203 585.699C789.344 576.494 794.222 562.487 794.222 544.048V373.571C794.222 353.348 793.255 336.665 791.289 323.873C789.334 310.777 785.111 298.601 778.258 287.28C767.827 267.948 752.497 253.068 731.625 242.649C710.753 232.229 686.967 226.895 660.542 226.895C633.149 226.895 609.021 231.934 587.826 241.766C566.963 251.873 547.734 267.351 529.774 288.76V277.476C529.774 266.762 527.829 257.538 523.596 249.794C519.363 242.069 513.487 236.404 506.321 232.532C499.125 228.661 491.305 226.895 482.516 226.895ZM1448.99 290.259H1449.3C1475.36 290.259 1496.57 297.994 1512.54 313.471C1528.87 328.931 1537.98 352.447 1540.58 383.991H1357.99C1361.59 353.053 1371.36 329.538 1387.34 313.775C1403.31 298.003 1423.85 290.259 1448.98 290.259H1448.99ZM1851.67 290.259H1852.01C1878.09 290.259 1899.25 297.994 1915.23 313.471C1931.22 328.931 1940.68 352.447 1942.96 383.991H1760.69C1763.95 353.053 1773.74 329.538 1790.04 313.775C1806.03 298.003 1826.57 290.259 1851.67 290.259ZM1021.19 295.612H1022.46C1039.74 295.612 1055.73 300.375 1070.08 309.609C1085.08 318.824 1096.84 332.214 1105.63 349.77C1114.12 367.327 1118.68 388.451 1118.68 412.859C1118.68 439.032 1114.12 460.745 1105.63 477.998C1096.84 495.26 1085.08 508.043 1070.41 516.366C1056.05 524.698 1039.74 528.892 1022.46 528.892H1022.16C1004.55 528.892 988.555 524.422 973.881 515.796C958.904 506.875 947.475 493.78 939.009 476.527C930.523 458.97 926.29 437.846 926.29 412.85C926.29 389.343 930.221 368.513 938.042 350.957C946.185 333.115 957.271 319.412 971.935 309.894C986.287 300.063 1002.92 295.612 1021.19 295.612ZM2252.07 295.612H2253.06C2270.34 295.612 2286.32 300.375 2300.99 309.609C2315.66 318.824 2327.42 332.214 2336.2 349.77C2345.01 367.327 2349.26 388.451 2349.26 412.859C2349.26 439.032 2345.01 460.745 2336.2 477.998C2327.42 495.26 2315.64 508.043 2301.3 516.366C2286.86 524.664 2270.12 529.01 2253.06 528.892H2252.74C2235.15 528.892 2219.14 524.422 2204.47 515.796C2189.81 506.875 2178.07 493.78 2169.6 476.527C2161.12 458.97 2156.88 437.846 2156.88 412.85C2156.88 389.343 2160.76 368.522 2168.92 350.957C2176.75 333.115 2188.17 319.412 2202.52 309.894C2217.22 300.063 2233.49 295.612 2252.07 295.612ZM369.033 298.601C342.93 312.855 312.291 320.902 279.687 320.902C272.854 320.902 266.323 320.617 259.47 320.01V538.999C259.47 559.232 264.691 574.406 274.809 584.531C285.241 594.942 297.97 600 313.944 600C330.231 600 343.625 594.942 353.704 584.826C363.832 574.709 369.033 559.535 369.033 538.999V298.601Z" fill="#9DACFF"/>
</g>
<defs>
<clipPath id="clip0_1116_637">
<rect width="2500" height="600" fill="white"/>
</clipPath>
</defs>
</svg>
