<svg width="628" height="168" viewBox="0 0 628 168" fill="none" xmlns="http://www.w3.org/2000/svg">
<path d="M60.636 1.57863C34.7694 8.91196 12.236 33.1786 3.56937 62.912C-1.36397 79.5786 -1.0973 83.9786 3.83603 70.512C10.236 53.4453 17.9694 40.7786 29.1694 29.5786C52.5027 6.37862 82.236 1.84529 107.436 17.712C113.436 21.4453 113.969 21.5786 113.969 19.0453C113.969 16.2453 102.503 6.24529 95.7027 3.31196C87.436 -0.288041 70.5027 -1.08804 60.636 1.57863Z" fill="#21282B"/>
<path d="M286.369 26.9123C281.836 30.1123 280.636 37.0457 280.636 58.779V78.5123L275.703 74.2457C266.903 66.5123 260.236 64.2457 245.969 64.2457C234.769 64.2457 232.503 64.6457 226.636 67.8457C217.836 72.5123 212.236 78.5123 207.703 88.2457C204.236 95.8457 203.969 97.3123 203.969 114.379V132.512L209.303 143.046C217.836 159.712 230.103 167.179 248.103 166.646C258.236 166.512 266.369 163.046 274.369 155.579L280.369 150.112L281.303 155.179C282.369 161.446 284.503 164.379 289.169 166.246C293.969 167.979 298.769 166.646 301.969 162.646C304.503 159.312 304.636 157.046 304.636 95.3123V31.4457L301.303 28.2457C297.569 24.379 290.769 23.8457 286.369 26.9123ZM267.703 86.6457C281.169 96.9123 283.436 125.846 271.836 139.312C266.369 145.712 260.103 148.112 251.169 147.312C237.969 145.979 229.969 135.446 228.903 118.112C227.969 102.379 232.636 90.9123 242.503 84.6457C248.636 80.779 261.303 81.8457 267.703 86.6457Z" fill="#21282B"/>
<path d="M607.703 28.1123L603.969 31.3123L603.569 54.7789L603.036 78.1123L595.969 72.7789C584.103 63.8456 569.036 61.1789 554.369 65.5789C545.569 68.2456 535.169 77.4456 530.769 86.6456C521.436 105.846 524.103 135.579 536.636 151.446C552.503 171.446 579.036 172.379 599.036 153.712L603.303 149.712V153.446C603.303 165.846 617.303 171.846 624.636 162.646C627.169 159.312 627.303 157.046 627.303 96.6456C627.303 44.3789 627.036 33.4456 625.303 30.3789C622.103 24.1123 613.569 23.0456 607.703 28.1123ZM587.969 85.4456C591.569 87.5789 594.769 91.0456 597.436 95.8456C600.903 102.246 601.303 103.979 601.303 115.579C601.169 125.979 600.636 129.179 598.236 133.846C594.103 141.712 587.303 146.512 579.436 147.312C570.636 148.112 564.236 145.712 558.903 139.446C553.169 132.912 551.303 126.512 551.303 114.112C551.303 99.9789 556.769 89.3123 566.636 83.8456C571.436 81.1789 581.969 81.9789 587.969 85.4456Z" fill="#21282B"/>
<path d="M60.236 33.4454C53.436 35.9788 51.3026 37.9788 48.3693 44.6454C42.1026 58.5121 52.236 72.9121 68.236 72.9121C88.7693 72.9121 96.236 47.7121 79.3027 35.4454C74.636 32.1121 66.3693 31.1788 60.236 33.4454Z" fill="#21282B"/>
<path d="M104.636 66.2457C103.169 67.7124 101.703 70.2457 101.303 71.8457C100.903 73.579 100.636 93.8457 100.903 117.046C101.303 157.179 101.436 159.446 103.969 162.246C107.836 166.646 112.236 167.846 117.436 166.246C125.036 163.712 125.169 163.046 126.103 131.046C126.903 99.8457 127.703 96.2457 133.703 89.7124C143.569 79.179 159.969 80.1124 165.569 91.3124C167.569 95.579 167.969 100.512 168.369 126.246C168.636 144.246 169.303 157.712 170.236 160.112C172.369 165.312 179.303 168.246 185.303 166.246C193.569 163.446 194.236 160.112 193.703 121.179L193.303 86.9124L189.436 79.979C182.903 68.1124 172.236 62.9124 156.236 63.8457C145.169 64.379 139.303 66.9124 130.636 74.5124L124.636 79.8457V76.2457C124.636 72.2457 122.503 67.579 119.436 65.3124C115.969 62.6457 107.703 63.179 104.636 66.2457Z" fill="#21282B"/>
<path d="M349.036 65.4454C334.503 70.2454 324.236 79.5788 319.036 93.3121C316.503 100.112 315.969 103.979 316.103 115.579C316.103 132.245 319.036 141.179 327.436 150.779C345.969 171.845 388.369 172.645 407.169 152.245C411.703 147.312 412.636 145.312 412.636 141.045C412.636 137.045 411.969 135.312 410.103 134.245C405.036 131.579 401.169 132.912 392.503 139.845C387.836 143.579 382.103 147.445 379.703 148.512C374.103 150.779 361.436 150.779 356.903 148.379C348.903 144.112 341.969 133.445 341.969 125.045V121.045L374.369 120.645C410.503 120.245 411.703 119.979 414.103 111.179C415.703 105.179 413.969 95.3121 409.836 86.6454C406.503 79.7121 397.036 70.9121 388.903 67.1788C381.036 63.5788 357.703 62.6454 349.036 65.4454ZM376.503 82.9121C381.703 85.5788 386.903 92.1121 388.636 97.9788C391.436 108.112 392.769 107.579 365.969 107.579C338.903 107.579 339.969 108.112 343.969 96.7788C346.369 90.2454 348.903 86.9121 354.636 83.4454C359.569 80.3788 371.169 80.1121 376.503 82.9121Z" fill="#21282B"/>
<path d="M454.369 65.4453C446.369 68.1119 437.436 73.5786 433.436 78.3786C417.036 97.8453 416.769 132.512 432.769 150.779C450.369 170.779 491.436 172.779 510.503 154.512C515.169 149.979 519.303 143.045 519.303 139.579C519.303 136.912 513.836 132.912 510.103 132.912C507.436 132.912 503.969 134.779 499.169 138.912C495.303 142.245 489.703 146.112 486.636 147.579C480.236 150.645 469.303 151.045 462.903 148.379C454.636 144.912 447.303 133.579 447.303 123.979C447.303 121.045 447.436 121.045 479.703 120.645C515.436 120.245 516.769 119.845 519.436 111.845C524.236 97.4453 511.569 75.0453 494.236 67.1786C486.369 63.5786 463.036 62.6453 454.369 65.4453ZM483.303 83.7119C489.036 87.0453 493.436 93.9786 494.769 101.979L495.703 107.579H471.436C444.103 107.579 445.303 108.112 449.303 96.7786C451.703 90.2453 454.236 86.9119 459.969 83.4453C465.569 79.9786 476.769 80.1119 483.303 83.7119Z" fill="#21282B"/>
<path d="M77.3026 85.9788C75.1693 87.0455 68.9026 88.2455 63.5693 88.6455L53.8359 89.3121L54.2359 122.779C54.6359 161.179 55.3026 163.579 64.5026 166.379C68.7693 167.579 70.3693 167.579 74.3693 165.579C76.9026 164.379 79.7026 161.845 80.5026 159.845C81.5693 157.445 81.8359 144.245 81.7026 119.979L81.3026 83.8455L77.3026 85.9788Z" fill="#21282B"/>
</svg>
