<svg width="2500" height="600" viewBox="0 0 2500 600" fill="none" xmlns="http://www.w3.org/2000/svg">
<g clip-path="url(#clip0_1116_643)">
<path d="M2458.21 518.657C2447.29 518.76 2436.86 523.111 2429.2 530.757C2421.54 538.404 2417.26 548.724 2417.32 559.461C2417.37 570.197 2421.74 580.477 2429.48 588.05C2437.22 595.624 2447.69 599.876 2458.6 599.876C2469.52 599.876 2479.99 595.624 2487.73 588.05C2495.46 580.477 2499.84 570.197 2499.89 559.461C2499.94 548.724 2495.67 538.404 2488.01 530.757C2480.35 523.111 2469.92 518.76 2459 518.657H2458.21ZM2458.21 595.227C2451.05 595.344 2444.01 593.37 2437.99 589.555C2431.98 585.741 2427.24 580.256 2424.39 573.795C2421.54 567.334 2420.7 560.186 2421.98 553.257C2423.26 546.327 2426.6 539.927 2431.58 534.864C2436.56 529.802 2442.95 526.305 2449.95 524.816C2456.95 523.327 2464.24 523.913 2470.9 526.5C2477.56 529.086 2483.29 533.557 2487.37 539.347C2491.44 545.137 2493.68 551.986 2493.8 559.028V559.626C2494 568.864 2490.47 577.802 2483.97 584.475C2477.47 591.147 2468.54 595.008 2459.15 595.208H2458.22M2299.72 507.562H2210.01V369.369C2210.01 336.415 2209.41 293.994 2163.34 293.994C2116.62 293.994 2109.47 329.898 2109.47 366.969V507.553H2019.75V223.371H2105.88V262.207H2107.09C2115.71 247.712 2128.16 235.787 2143.12 227.704C2158.09 219.62 2175 215.679 2192.06 216.302C2282.99 216.302 2299.76 275.132 2299.76 351.665L2299.72 507.562ZM1918.53 184.525C1908.23 184.527 1898.16 181.526 1889.6 175.9C1881.04 170.275 1874.36 162.278 1870.42 152.922C1866.48 143.565 1865.45 133.269 1867.45 123.335C1869.46 113.401 1874.42 104.276 1881.7 97.1127C1888.98 89.9497 1898.25 85.0709 1908.35 83.0932C1918.45 81.1155 1928.92 82.1278 1938.43 86.002C1947.95 89.8762 1956.08 96.4383 1961.8 104.859C1967.52 113.279 1970.58 123.179 1970.58 133.307C1970.58 140.032 1969.24 146.691 1966.62 152.905C1964.01 159.118 1960.17 164.764 1955.34 169.52C1950.5 174.276 1944.77 178.049 1938.45 180.624C1932.13 183.198 1925.36 184.524 1918.53 184.525ZM1963.38 507.562H1873.58V223.371H1963.38V507.562ZM2344.45 0.160189H1828.49C1816.78 0.0302011 1805.5 4.47857 1797.12 12.5278C1788.74 20.577 1783.96 31.5686 1783.81 43.0871V552.686C1783.95 564.21 1788.74 575.209 1797.11 583.267C1805.49 591.324 1816.78 595.781 1828.49 595.659H2344.45C2356.19 595.804 2367.5 591.359 2375.92 583.302C2384.33 575.244 2389.14 564.233 2389.3 552.686V43.0504C2389.14 31.509 2384.32 20.5049 2375.91 12.4559C2367.5 4.40687 2356.18 -0.028796 2344.45 0.123421M1539.63 291.962C1494.78 291.962 1467.86 321.423 1467.86 364.35C1467.86 407.277 1494.77 436.765 1539.63 436.765C1584.5 436.765 1611.47 407.35 1611.47 364.35C1611.47 321.349 1584.55 291.962 1539.63 291.962ZM1694.06 507.397H1611.47V469.709H1610.25C1599.88 483.417 1586.44 494.587 1570.97 502.349C1555.5 510.11 1538.42 514.254 1521.05 514.456C1434.85 514.456 1378.07 453.265 1378.07 366.73C1378.07 287.256 1428.32 214.28 1510.92 214.28C1548.05 214.28 1582.73 224.272 1603.08 251.968H1604.25V88.1558H1694.05L1694.06 507.397ZM1262.88 332.306C1263.05 325.147 1261.75 318.028 1259.04 311.381C1256.33 304.733 1252.28 298.695 1247.13 293.633C1241.98 288.571 1235.84 284.59 1229.08 281.932C1222.32 279.273 1215.08 277.991 1207.8 278.165C1192.13 277.206 1176.69 282.344 1164.83 292.472C1152.98 302.599 1145.64 316.906 1144.4 332.306H1262.88ZM1338.88 458.237C1323.97 476.019 1305.23 490.318 1284.01 500.097C1262.79 509.875 1239.62 514.89 1216.19 514.778C1126.48 514.778 1054.65 455.875 1054.65 364.662C1054.65 273.449 1126.47 214.574 1216.19 214.574C1300.05 214.574 1352.63 273.403 1352.63 364.662V392.33H1144.4C1146.99 408.022 1155.27 422.263 1167.69 432.43C1180.12 442.597 1195.86 448.005 1212.02 447.657C1224.78 447.58 1237.33 444.361 1248.51 438.296C1259.7 432.231 1269.16 423.511 1276.04 412.93L1338.88 458.237ZM447.021 223.297H533.175V262.134H534.4C543.005 247.632 555.453 235.702 570.415 227.617C585.376 219.532 602.289 215.596 619.348 216.229C710.324 216.229 727.071 275.104 727.071 351.591V507.433H637.356V369.267C637.356 336.286 636.74 293.893 590.63 293.893C543.997 293.893 536.801 329.806 536.801 366.868V507.397H447.087L447.021 223.297ZM772.564 88.1834H862.278V338.805L963.955 223.141H1073.95L956.198 354.707L1071.47 507.571H958.712L863.474 367.098H862.297V507.553H772.582L772.564 88.1834ZM307.562 223.27H397.277V507.452H307.562V223.27ZM352.419 81.9879C362.712 81.9898 372.773 84.9936 381.331 90.6196C389.888 96.2456 396.557 104.241 400.495 113.595C404.432 122.949 405.462 133.242 403.453 143.171C401.443 153.1 396.486 162.221 389.207 169.379C381.928 176.537 372.655 181.412 362.56 183.386C352.464 185.361 342.001 184.346 332.491 180.472C322.982 176.597 314.855 170.036 309.136 161.618C303.418 153.199 300.366 143.303 300.366 133.179C300.366 126.455 301.713 119.798 304.329 113.587C306.945 107.375 310.779 101.732 315.613 96.9781C320.446 92.2245 326.185 88.454 332.5 85.8819C338.815 83.3099 345.584 81.9867 352.419 81.9879ZM0 88.2477H93.3872V422.839H266.275V507.608H0V88.2477ZM2464.76 561.841C2466.29 561.856 2467.82 561.561 2469.23 560.973C2470.65 560.385 2471.93 559.517 2472.99 558.423C2474.05 557.329 2474.87 556.033 2475.4 554.614C2475.93 553.196 2476.15 551.685 2476.07 550.176C2476.07 541.904 2470.99 537.951 2460.58 537.951H2443.76V581.264H2450.09V562.383H2457.86L2458.04 562.613L2470.1 581.264H2476.87L2463.89 561.961L2464.76 561.841ZM2457.44 557.503H2450.1V542.86H2459.4C2464.21 542.86 2469.68 543.632 2469.68 549.818C2469.68 556.933 2464.14 557.503 2457.4 557.503" fill="#9DACFF"/>
</g>
<defs>
<clipPath id="clip0_1116_643">
<rect width="2500" height="600" fill="white"/>
</clipPath>
</defs>
</svg>
