<svg width="800" height="212" viewBox="0 0 800 212" fill="none" xmlns="http://www.w3.org/2000/svg">
<path d="M589.435 15.1793C589.435 6.80041 596.404 0 604.997 0H784.437C793.033 0 800 6.80041 800 15.1793V196.723C800 205.104 793.033 211.899 784.437 211.899H604.997C596.404 211.899 589.435 205.104 589.435 196.726V15.1793Z" fill="#21282B"/>
<path d="M0 177.497H87.8745V148.645H31.8066V38.5792H0V177.497ZM132.365 177.497V81.8134H100.561V177.497H132.365ZM116.466 68.7517C127.554 68.7517 134.457 61.4038 134.457 52.2162C134.252 42.8284 127.554 35.689 116.677 35.689C105.797 35.689 98.6824 42.8312 98.6824 52.2162C98.6824 61.4038 105.586 68.7517 116.257 68.7517H116.466ZM147.13 177.497H178.934V124.061C178.934 121.201 179.14 118.342 179.982 116.305C182.277 110.591 187.51 104.671 196.298 104.671C207.809 104.671 212.413 113.448 212.413 126.304V177.494H244.212V122.632C244.212 93.2409 228.521 79.5651 207.595 79.5651C190.439 79.5651 182.905 89.1557 178.72 95.6893H178.934V81.8134H147.13C147.55 90.7926 147.13 177.497 147.13 177.497ZM289.08 38.5792H257.276V177.497H289.08V146.474L297.028 136.467L321.929 177.497H361.053L319.211 118.1L355.822 77.692H317.538C317.538 77.692 291.384 113.842 289.08 118.133V38.5792Z" fill="#21282B"/>
<path d="M446.101 137.584C446.52 135.127 447.148 130.414 447.148 125.084C447.148 100.35 434.593 75.2381 401.535 75.2381C366.174 75.2381 349.853 103.204 349.853 128.569C349.853 159.939 369.732 179.529 404.462 179.529C418.274 179.529 431.032 177.494 441.499 173.206L437.313 152.202C428.731 155.048 419.944 156.473 409.067 156.473C394.212 156.473 381.243 150.373 380.195 137.378L446.101 137.578V137.584ZM379.986 116.068C380.823 107.903 386.267 95.8561 399.865 95.8561C414.3 95.8561 417.651 108.718 417.651 116.068H379.986ZM525.649 38.5792V86.6684H525.229C520.625 79.9375 511.001 75.4465 498.245 75.4465C473.761 75.4465 452.212 95.039 452.418 128.51C452.418 159.536 471.879 179.743 496.146 179.743C509.33 179.743 521.881 174.023 528.161 163.001H528.787L530.046 177.497H558.289C557.873 170.761 557.45 159.127 557.45 147.697V38.5764H525.646L525.649 38.5792ZM525.649 133.207C525.649 135.652 525.441 138.106 525.018 140.141C523.142 148.923 515.608 155.039 506.401 155.039C493.223 155.039 484.641 144.429 484.641 127.693C484.641 111.98 491.969 99.3243 506.612 99.3243C516.445 99.3243 523.348 106.058 525.232 114.423C525.649 116.266 525.649 118.308 525.649 120.142V133.207Z" fill="#21282B"/>
<path d="M653.265 177.38V81.6967H621.461V177.38H653.265ZM637.368 68.635C648.457 68.635 655.36 61.2871 655.36 52.105C655.152 42.7145 648.457 35.5723 637.579 35.5723C626.694 35.5723 619.585 42.7145 619.585 52.105C619.585 61.2871 626.485 68.635 637.16 68.635H637.366H637.368ZM670.867 177.38H702.668V123.953C702.668 121.096 702.877 118.233 703.716 116.193C706.014 110.477 711.247 104.56 720.035 104.56C731.54 104.56 736.145 113.334 736.145 126.198V177.38H767.946V122.519C767.946 93.1298 752.258 79.4539 731.335 79.4539C714.179 79.4539 706.645 89.0418 702.46 95.5726H702.671V81.6994H670.87C671.284 90.6759 670.867 177.38 670.867 177.38Z" fill="#FCFDFD"/>
</svg>
