<svg width="255" height="255" viewBox="0 0 255 255" fill="none" xmlns="http://www.w3.org/2000/svg">
<g clip-path="url(#clip0_888_559)">
<path d="M29.8666 2.53328C22.9333 6.79995 20.6666 13.3333 20.7999 29.3333C20.7999 39.9999 21.7333 46.7999 24.5333 57.9999C32.9333 91.3333 51.4666 129.467 68.3999 148.667L73.0666 154L69.3333 161.467C62.1333 175.467 59.0666 194.133 61.3333 208.533C63.9999 225.333 71.5999 235.6 88.1333 244.533C95.1999 248.4 114.133 254.667 118.933 254.667C119.467 254.667 120 244.667 120 232.267C119.867 215.467 119.467 209.2 118 206.667C113.333 198.533 117.2 193.333 127.6 193.333C137.6 193.333 141.2 198.667 136.667 206.667C135.2 209.2 134.8 215.467 134.667 232.267C134.667 244.667 135.2 254.667 135.733 254.667C136.4 254.667 141.467 253.467 146.933 252.133C169.333 246.4 186.4 233.2 191.333 218C196.4 202 194 178.4 185.467 161.733L181.6 154L186.267 148.667C203.733 128.533 221.467 92 230.133 57.9999C234.933 39.1999 235.467 18.3999 231.467 10.1333C228.533 4.26661 222.4 -5.3972e-05 216.933 -5.3972e-05C207.333 -5.3972e-05 193.333 11.4666 182 28.6666C174.267 40.2666 160 69.0666 147.867 97.6L140.667 114.667H127.333H114L106.8 97.6C86.1333 49.1999 71.5999 23.3333 58.1333 11.0666C46.1333 -5.3972e-05 37.9999 -2.40005 29.8666 2.53328ZM107.733 170.133C111.2 172.533 111.6 177.6 108.533 180.533C102 187.2 91.9999 177.333 98.2666 170.4C100.933 167.467 103.867 167.333 107.733 170.133ZM155.733 170.133C161.2 174 158.267 182.667 151.333 182.667C144.4 182.667 141.467 174 146.933 170.133C148.533 168.933 150.533 168 151.333 168C152.133 168 154.133 168.933 155.733 170.133Z" fill="#9DACFF"/>
</g>
<defs>
<clipPath id="clip0_888_559">
<rect width="254.667" height="254.667" fill="white"/>
</clipPath>
</defs>
</svg>
