<svg width="1366" height="1366" viewBox="0 0 1366 1366" fill="none" xmlns="http://www.w3.org/2000/svg">
<path d="M393.333 182.933C369.2 186 344.267 204.267 333.6 226.667C330.667 232.933 327.6 241.2 326.8 245.067C325.733 250.133 325.333 369.2 325.333 675.733C325.333 1149.73 324.4 1105.33 335.467 1127.6C342.933 1142.67 354.933 1154.67 369.333 1162C387.867 1171.33 365.6 1170.8 678.933 1170.4L962 1170L970.8 1166.93C990.4 1160.4 1008.4 1144.4 1017.33 1125.87C1026 1107.87 1025.33 1142.4 1025.33 676C1025.33 213.067 1025.87 244.133 1018 227.333C1011.47 213.467 997.733 198.933 983.6 190.933C980.933 189.333 974.4 186.8 969.333 185.2L960 182.4L680.267 182.267C526.533 182.133 397.333 182.4 393.333 182.933ZM973.467 204.267C990.667 212.8 1004.13 228.8 1007.87 245.467C1008.67 248.667 1009.33 263.2 1009.33 277.6V304H894.8H780.133L778.133 306.933C775.333 310.933 775.467 312.8 778.667 316C781.333 318.667 783.067 318.667 895.333 318.667H1009.33V710.533C1009.33 1099.33 1009.33 1102.4 1006.67 1111.07C1005.07 1116 1001.47 1123.07 998.133 1127.6C986.667 1143.2 973.867 1151.07 956.4 1153.33C949.6 1154.27 848.133 1154.53 668.667 1154.4L391.333 1154L383.733 1150.93C367.067 1144.13 351.867 1128.93 345.067 1112.27L342 1104.67V712V319.333L457.733 318.667C558.667 318.133 573.6 317.733 574.667 316C576.667 312.8 576.267 309.6 573.333 306.667C570.667 304 568.933 304 456 304H341.333V278.267C341.467 250.8 342.267 244.933 347.467 233.733C354.533 218.933 373.067 203.867 388.8 200.133C391.867 199.467 509.6 198.933 678.8 199.067L963.467 199.333L973.467 204.267Z" fill="#21282B"/>
<path d="M795.333 230.267C787.467 232.267 780 242.4 780 251.067C780 257.6 785.2 266.667 790.667 269.467C794.8 271.733 798.667 272 829.333 272C859.067 272 863.867 271.733 868 269.6C882.533 262.4 882.267 239.333 867.6 232.133C862.8 229.733 859.467 229.467 830.133 229.6C812.533 229.6 796.8 229.867 795.333 230.267ZM861.6 245.2C864 245.467 865.6 251.067 864.133 254.133L862.667 257.333H830.8C803.6 257.333 798.533 257.067 796.8 255.2C793.467 251.867 794.267 248.4 799.2 245.733C801.067 244.667 854.4 244.267 861.6 245.2Z" fill="#21282B"/>
<path d="M920.533 230.667C909.333 231.467 904.8 234.133 901.2 241.733C898.133 248.8 898 253.867 901.2 260.8C905.867 271.067 908.267 272 930.533 272C957.867 271.867 963.6 268.933 966.133 253.6C967.2 247.067 963.333 238.133 957.6 234C953.467 230.933 937.067 229.467 920.533 230.667ZM950.4 250.133C951.067 256.667 948.8 257.467 931.333 257.067C916.667 256.667 915.6 256.533 914.533 253.867C913.867 252 914.267 250 915.6 248.133C917.467 245.467 918.533 245.333 933.733 245.6L950 246L950.4 250.133Z" fill="#21282B"/>
<path d="M394.667 234.933C387.067 238.8 383.733 244.533 383.733 253.467C383.867 266.4 393.867 275.733 406.4 274.267C413.2 273.467 418 270.4 422.4 263.867C425.067 260.133 425.467 258.133 425.067 252.267C423.733 236.267 408.667 227.6 394.667 234.933Z" fill="#21282B"/>
<path d="M452.133 234.933C447.867 237.067 445.733 239.2 443.867 243.2C434.933 262.933 453.2 281.733 471.867 271.733C486.267 264 486.4 244.667 472.133 235.067C466.4 231.2 459.733 231.2 452.133 234.933Z" fill="#21282B"/>
<path d="M510.667 234.933C496.667 242.133 495.467 261.467 508.4 271.2C513.733 275.067 526.267 275.2 531.467 271.2C541.067 264.133 543.6 254.133 538.4 244.133C532.533 232.667 521.867 229.2 510.667 234.933Z" fill="#21282B"/>
<path d="M660 277.467C638.667 280.933 612.533 301.733 601.6 324C593.6 340.267 591.333 349.867 591.467 367.333C591.6 383.733 593.733 392 602.4 408.667C609.333 422.133 625.467 438 638.933 444.533C670.4 460.133 705.333 455.067 733.333 430.933C762.533 405.733 770.667 356.4 751.067 322.8C741.333 305.867 724.8 290 710.267 283.333C696 276.8 677.733 274.667 660 277.467ZM689.733 292.667C714.933 298 737.467 320.4 744.667 347.467C747.867 359.067 747.6 377.333 744.133 388.267C740.4 399.867 729.733 415.867 720.4 423.333C716.4 426.667 712.667 429.333 712.133 429.333C710.533 429.333 704 411.333 705.333 410.933C706.133 410.667 708.533 407.733 710.8 404.533C716.8 395.733 717.467 386.667 712.8 376.533C710.8 372.133 707.467 366.8 705.333 364.667L701.6 360.667L706.8 344.667C714.133 322.533 713.2 312 703.867 312C695.467 312 685.467 326.8 682.267 344.267C680.8 351.467 680.4 352.133 677.467 351.733C674.533 351.333 673.867 350.133 671.867 341.733C667.467 324 659.2 312 651.333 312C645.6 312 642.267 315.867 642.4 322.533C642.533 328.533 644 334.8 648.933 349.733L652.267 360.267L648.267 364.4C636.4 376.667 635.467 396 645.867 407.2L649.467 410.933L646 420.133L642.4 429.333L638.4 427.067C627.733 420.8 615.467 405.067 610.533 391.333C606.533 380.133 605.733 361.867 608.533 349.067C613.867 325.333 626.533 308.667 646.667 298.933C662.933 291.067 674.4 289.333 689.733 292.667ZM658 334.267C661.2 341.733 663.867 353.333 662.533 353.333C661.867 353.333 661.067 352.533 660.667 351.6C660.4 350.8 659.067 346.133 657.467 341.333C656 336.533 654.4 331.467 653.867 330.133C652 325.333 655.867 329.2 658 334.267ZM696.667 341.867C692.933 354.133 691.067 356.8 692.533 347.867C693.467 342 698.667 328.8 699.6 329.867C699.867 330.133 698.533 335.6 696.667 341.867ZM685.733 365.2C691.333 367.333 698.933 375.067 701.733 381.2C708.267 396.133 696.8 406.4 674.8 405.067C663.067 404.4 656.933 401.733 653.333 395.6C649.867 390 650 386.533 653.867 378.933C657.467 372 661.733 367.467 666.667 365.467C670.933 363.733 681.6 363.6 685.733 365.2ZM677.333 419.2C682.8 419.2 688.933 418.8 690.933 418.267C694.267 417.333 694.667 417.733 695.867 422.4C698.933 433.733 699.067 435.6 696.533 436.533C688.667 439.6 654.667 438.133 654.667 434.8C654.667 433.467 658.8 419.6 659.6 418.267C659.867 417.733 661.733 417.733 663.733 418.267C665.733 418.667 671.867 419.2 677.333 419.2Z" fill="#21282B"/>
<path d="M664.267 381.6C662.134 383.733 662.267 386 664.667 388C666.4 389.333 667.2 389.2 669.334 387.333C671.867 385.067 671.867 384.8 669.867 382.4C667.2 379.6 666.4 379.467 664.267 381.6Z" fill="#21282B"/>
<path d="M684.533 382.267C682.667 384.133 682.667 384.533 684.533 386.533C686.933 388.933 691.067 387.333 691.733 383.733C692.267 380.8 687.067 379.867 684.533 382.267Z" fill="#21282B"/>
<path d="M673.467 388.8C669.467 393.867 670.267 397.2 674.4 393.067C675.733 391.733 676.667 391.733 678.8 393.2C683.067 395.733 684.533 393.067 681.333 388.933C677.733 384.4 676.933 384.4 673.467 388.8Z" fill="#21282B"/>
<path d="M440.667 428.533C439.067 430.933 438.933 432.533 439.867 435.2L441.333 438.667H461.2C480.4 438.667 481.333 438.533 483.2 435.733C485.867 432 485.867 430 483.2 427.467C481.467 425.733 477.6 425.333 462 425.333C443.2 425.333 442.667 425.467 440.667 428.533Z" fill="#21282B"/>
<path d="M868.267 426.933C865.733 429.467 866.267 435.733 869.2 437.333C870.667 438 880 438.667 890 438.667C900 438.667 909.333 438 910.8 437.333C912.4 436.4 913.333 434.533 913.333 432C913.333 429.467 912.4 427.6 910.8 426.667C907.067 424.667 870.267 424.933 868.267 426.933Z" fill="#21282B"/>
<path d="M506 448.8C503.067 451.867 504 456.267 508 458.267C512.4 460.533 563.867 460.267 568.267 458.133C571.733 456.4 572.933 451.467 570.667 448.533C569.333 447.067 563.467 446.667 538.533 446.667C512.267 446.667 507.867 446.933 506 448.8Z" fill="#21282B"/>
<path d="M796.8 448.8C794.133 451.333 794.133 453.333 796.8 457.067C798.667 459.867 799.733 460 818.4 460C834 460 838.667 459.6 841.067 457.867C844.667 455.467 844.8 451.867 841.6 448.933C838 445.733 800 445.6 796.8 448.8Z" fill="#21282B"/>
<path d="M883.467 470.267C876.133 470.533 869.333 471.467 868.4 472.267C866.267 474 866.133 480.267 868.267 482.4C869.333 483.467 876.133 484 890 484C911.6 484 913.333 483.467 913.333 477.2C913.333 470.267 909.2 469.333 883.467 470.267Z" fill="#21282B"/>
<path d="M440.267 472.267C437.867 474.667 438.267 479.333 441.067 481.733C443.2 483.6 446.8 484 462.8 484C483.6 484 485.333 483.467 485.333 477.333C485.333 471.2 483.6 470.667 462 470.667C448.133 470.667 441.333 471.2 440.267 472.267Z" fill="#21282B"/>
<path d="M665.067 529.467C646.533 531.467 633.867 537.333 619.733 550.533C610.133 559.6 603.333 570 599.067 582.533C596.133 591.2 596.133 592.4 596 660C596 717.733 596.267 730 598 736.667C604.267 760.667 627.867 782.267 654.667 788.533C687.867 796.4 726.133 780.267 741.2 752.133C749.733 736.133 749.867 734.4 749.6 660.933C749.333 587.867 748.933 583.867 741.2 569.333C726.667 542 696.667 526.4 665.067 529.467ZM683.2 585.2C685.333 586.4 688.533 590 690.267 593.333L693.467 599.2L693.067 661.467C692.667 722 692.533 723.867 689.867 727.467C682.933 736.8 673.333 739.6 663.733 734.8C660.533 733.333 656.667 730 655.067 727.6L652 723.2V660.8C652 606 652.267 597.867 654.133 593.867C656.8 588.267 662 584.4 668.8 582.8C674.667 581.467 677.6 582 683.2 585.2Z" fill="#21282B"/>
<path d="M475.867 531.333C471.733 533.6 468.267 538.667 456.667 559.333C451.733 568.133 441.2 586.667 433.333 600.667C405.333 650.133 384.4 687.333 382.133 691.733C380.8 694.267 379.6 700.667 379.2 707.067C378.533 716.533 378.8 718.533 381.2 722.4C382.8 724.8 385.867 727.867 388.267 729.333C392.4 731.867 395.067 732 435.067 732H477.333V756.533C477.333 770 477.733 782.133 478.133 783.333C480 788 485.867 789.333 504.667 789.333C523.6 789.333 528.933 788 531.6 782.8C532.133 781.6 532.933 769.867 533.333 756.667L534 732.667L546.8 732C565.867 731.067 569.333 727.067 569.333 706C569.333 691.867 567.733 686.533 562.133 681.333C558.8 678.4 557.067 678 545.867 677.6L533.333 677.067V608.4C533.333 560.533 532.933 538.933 531.867 536.933C528.267 529.867 526.267 529.333 502 529.467C485.2 529.467 478.4 529.867 475.867 531.333ZM477.6 657.467L477.2 676.933L467.067 677.867C461.467 678.267 456.667 678.533 456.533 678.267C456.267 678 460.8 669.2 466.667 658.667C472.533 648 477.333 638.8 477.333 638.133C477.333 637.467 477.467 637.2 477.733 637.467C477.867 637.733 477.867 646.8 477.6 657.467Z" fill="#21282B"/>
<path d="M871.733 532C869.867 533.467 863.6 542.933 858 552.933C852.267 563.067 842.933 579.467 837.333 589.333C775.333 697.333 777.867 692.4 776.533 704.933C775.733 712.4 776.133 714.533 778.8 720.133C784.267 732 784 732 831.867 732H873.333V756V780L877.2 784.267L881.067 788.667L898.933 789.067C930.133 789.867 930.667 789.333 930.667 754.667V732H943.067C958.133 732 962.533 729.867 966 720.933C967.733 716.4 968.133 711.867 967.733 702.4C967.333 691.067 966.933 689.333 963.6 684.933C959.2 679.067 953.733 677.333 940.4 677.333H930.667V610.267C930.667 568.4 930.133 541.467 929.333 538.4C926.933 529.867 925.067 529.333 898.533 529.333C877.067 529.333 874.667 529.6 871.733 532ZM873.6 657.6L873.2 677.333H863.2C857.867 677.333 853.333 677.2 853.333 676.933C853.333 676.667 855.867 672 859.067 666.4C862.133 660.933 866.667 652.133 869.2 646.933C871.733 641.733 873.867 637.467 873.867 637.733C874 637.867 873.867 646.8 873.6 657.6Z" fill="#21282B"/>
<path d="M425.467 830.533C424.533 832.133 424 837.733 424.267 843.733C424.667 853.067 424.933 854 427.6 854.4C429.867 854.8 430.533 854 430.933 851.2C431.2 848.4 432.4 847.2 435.867 846C443.733 843.467 446.533 836 441.333 831.333C440 830.133 436.133 828.667 432.8 828.4C427.733 827.733 426.667 828.133 425.467 830.533ZM437.333 836.4C437.333 838.267 434.667 841.333 433.067 841.333C432.533 841.333 432 839.867 432 838C432 835.6 432.667 834.667 434.667 834.667C436.133 834.667 437.333 835.467 437.333 836.4Z" fill="#21282B"/>
<path d="M459.467 838.667C456.8 844.4 454.667 850.133 454.667 851.2C454.667 853.867 458.933 855.2 460.667 852.933C462.133 850.933 472 848.933 472 850.667C472 852.533 476.133 856.133 477.467 855.333C479.6 854 478.667 848.933 474.667 839.467C468.267 824.533 466 824.4 459.467 838.667ZM468.667 844C468 845.067 467.2 845.067 466.4 844.267C465.6 843.467 465.467 842.133 466 841.333C466.667 840.267 467.467 840.267 468.267 841.067C469.067 841.867 469.2 843.2 468.667 844Z" fill="#21282B"/>
<path d="M496.934 829.467C493.334 831.6 490.534 839.067 491.467 844C492.534 849.2 499.067 854.667 504.134 854.667C508.8 854.667 513.334 850.533 513.334 846.267C513.334 840.8 507.734 836.4 503.867 838.8C502.4 839.6 502.4 840.267 503.734 841.6C504.534 842.4 505.334 844 505.334 845.067C505.334 847.6 500 846.533 498.134 843.6C495.734 839.867 498.667 836.667 505.2 836.267C509.867 835.867 510.667 835.467 510.667 832.667C510.667 828.133 502.534 826.267 496.934 829.467Z" fill="#21282B"/>
<path d="M528.267 829.6C527.333 830.533 526.667 835.067 526.667 841.6C526.667 853.333 527.733 854.667 537.2 854.667C544.133 854.667 546.667 853.6 546.667 850.533C546.667 848.4 545.6 848 539.867 848C535.2 848 533.333 847.467 533.6 846.4C534 845.467 536.4 844.8 538.933 844.667C544.533 844.667 546 843.6 544.933 840.667C544.4 839.333 542.267 838.667 538.667 838.667C534.8 838.667 533.333 838.133 533.333 836.667C533.333 835.2 534.933 834.667 540.133 834.667C546.4 834.667 546.8 834.4 546.4 831.6C546 828.933 545.2 828.667 538 828.267C532.933 828 529.333 828.533 528.267 829.6Z" fill="#21282B"/>
<path d="M586.667 831.467C585.2 835.2 584.933 847.067 586.133 851.733C586.8 853.867 587.867 854.667 589.867 854.4C592 854.133 592.8 852.933 593.067 849.2L593.467 844.267L599.333 850.533L605.2 856.667L606.667 852.8C607.467 850.667 607.867 844.4 607.733 838.8C607.333 829.733 607.067 828.667 604.667 828.667C602.533 828.667 601.867 829.733 601.333 833.867L600.667 838.933L595.733 833.467C590 827.067 588.4 826.667 586.667 831.467Z" fill="#21282B"/>
<path d="M622.8 831.467C619.333 834.4 618.667 835.867 618.667 840.667C618.667 848.8 623.067 853.867 630 853.867C640.8 853.867 645.467 840 637.467 831.867C632.667 827.067 628.133 826.933 622.8 831.467ZM634 841.333C634 845.6 633.733 846 630 846C626.8 846 625.867 845.333 625.6 842.933C624.8 837.867 626.267 835.733 630.267 836.267C633.6 836.667 634 837.2 634 841.333Z" fill="#21282B"/>
<path d="M652.934 828.8C650.8 831.067 652.134 834.667 655.467 835.467C658.8 836.267 658.8 836.533 658 843.867C657.334 850 657.6 851.867 659.2 853.2C663.334 856.667 665.334 854 665.334 844.933C665.334 837.067 665.6 836.267 668.8 834.8C670.934 833.867 672 832.4 671.734 830.933C671.334 829.067 669.6 828.533 662.534 828.267C657.867 828 653.467 828.267 652.934 828.8Z" fill="#21282B"/>
<path d="M715.067 830.267C714.533 831.6 714.133 837.067 714 842.533C714 850.533 714.4 852.667 716.4 853.867C719.2 855.6 721.467 852.933 720.933 848.667C720.667 846.533 721.6 845.867 725.467 845.6C728.933 845.333 730.533 844.4 731.067 842.667C732 839.2 731.067 838.667 725.067 838.667C720.267 838.667 718.533 837.067 721.333 835.333C722.133 834.933 725.467 834.267 728.8 834C732.267 833.733 735.6 832.933 736.4 832.133C739.067 829.467 735.6 828 725.867 828C717.6 828 715.733 828.4 715.067 830.267Z" fill="#21282B"/>
<path d="M753.067 830.133C748.133 832.8 745.6 840.8 748.133 846C754.4 858.933 769.333 856 769.333 841.867C769.333 836.933 768.667 835.067 765.467 831.867C761.067 827.6 758.4 827.2 753.067 830.133ZM761.867 838.133C764.4 840.533 764.4 840.8 762.667 844.133C760.267 848.533 753.333 846.533 753.333 841.333C753.333 838.8 755.867 836 758.133 836C759.067 836 760.8 836.933 761.867 838.133Z" fill="#21282B"/>
<path d="M784.133 829.733C783.333 830.533 782.667 834.933 782.667 839.467C782.667 850.533 785.867 854.933 793.733 854.4C800.533 853.867 803.6 850 804.667 840C805.333 834.667 804.933 832 803.6 830C800.267 825.733 797.333 829.467 797.333 838C797.333 842.533 796.667 845.6 795.333 846.667C792.133 849.333 790.667 846.8 790.667 838.133C790.667 830.933 790.267 829.6 788.133 828.933C786.667 828.667 784.933 828.933 784.133 829.733Z" fill="#21282B"/>
<path d="M820 830.667C819.2 832.133 818.667 838 818.933 843.733C819.333 853.2 819.6 854 822.4 854.4C824.933 854.8 825.333 854.267 825.333 850.267C825.333 847.867 825.733 845.467 826.133 845.067C826.533 844.667 829.067 846.667 831.867 849.733C835.467 853.467 837.6 854.8 839.2 854.267C841.067 853.467 841.333 851.6 841.067 841.067C840.667 829.333 840.533 828.667 837.733 828.267C834.533 827.733 834 829.467 834.533 837.333C834.667 840.4 834.133 840 829.067 834.267C825.867 830.8 822.933 828 822.4 828C821.867 828 820.8 829.2 820 830.667Z" fill="#21282B"/>
<path d="M856.267 829.733C854.667 831.6 853.867 850.933 855.2 853.2C856.533 855.2 863.2 855.067 868.667 852.667C876.267 849.6 878.533 838.933 873.067 832.8C869.467 828.933 858.533 826.933 856.267 829.733ZM868.8 839.333C869.733 843.2 867.467 846.667 863.867 846.667C861.867 846.667 861.333 845.6 861.333 841.333C861.333 836.533 861.733 836 864.667 836C867.067 836 868.133 836.933 868.8 839.333Z" fill="#21282B"/>
<path d="M902.4 836.133C899.467 837.733 899.334 840.533 902.134 843.2C903.734 844.933 907.467 845.333 920.134 845.333C936.934 845.333 941.334 844.267 941.334 840C941.334 838.533 940.134 836.8 938.8 836C935.467 834.267 905.467 834.267 902.4 836.133Z" fill="#21282B"/>
<path d="M432.4 896.533C417.467 901.333 407.067 912.133 404.133 926.133C401.467 939.333 407.6 954.533 418.933 962.667C430.667 971.2 414.667 970.667 676.667 970.4L915.333 970L922.933 966.4C937.6 959.6 945.333 947.6 945.333 931.867C945.333 918.133 936.933 904.8 924.267 898.4L918 895.333L678 895.067C482 894.933 436.933 895.2 432.4 896.533ZM915.6 910.8C924 913.867 930.667 923.467 930.667 932.267C930.533 938.8 926.267 947.2 920.533 951.467L915.6 955.333L678.267 955.733C518 955.867 439.333 955.6 435.867 954.667C420 950.4 413.733 931.2 424.4 919.067C426.8 916.4 431.067 913.2 434 911.867C439.067 909.467 450 909.333 675.6 909.333C839.333 909.333 912.933 909.733 915.6 910.8Z" fill="#21282B"/>
<path d="M443.2 920C438.533 921.867 434.667 927.867 434.667 933.2C434.667 940.933 440.4 947.867 448.267 949.867C459.2 952.533 468.267 936.267 461.733 925.333C458.267 919.333 450.4 917.067 443.2 920ZM452.533 928.4C457.733 932.267 452.4 942.533 447.067 939.2C442.533 936.4 443.733 926.667 448.533 926.667C449.467 926.667 451.2 927.467 452.533 928.4Z" fill="#21282B"/>
<path d="M897.467 921.733C896.4 923.067 896.8 924.667 899.334 928L902.534 932.4L899.334 936.267C895.334 941.067 895.2 942.133 898.534 944C902.534 946.133 902.934 945.867 908.8 938.267L914.267 931.333L908.667 925.6C902.8 919.733 900 918.8 897.467 921.733Z" fill="#21282B"/>
<path d="M486.133 930.933C483.6 934.533 483.467 936.133 485.733 939.2C487.333 941.333 493.2 941.6 574.4 942.267C652.8 942.8 661.733 942.667 664.8 940.8C668.667 938.133 669.067 933.333 665.6 930.267C663.333 928.267 655.2 928 575.6 928H488.133L486.133 930.933Z" fill="#21282B"/>
<path d="M755.733 929.467C752.8 931.067 752.533 937.733 755.333 940C756.933 941.333 768.8 941.867 803.733 942.133C854 942.533 856 942.267 856 935.333C856 928.267 854.133 928 804 928C775.2 928 757.067 928.533 755.733 929.467Z" fill="#21282B"/>
<path d="M665.333 1006.8C649.2 1009.6 632.533 1020.93 623.333 1035.33C601.867 1068.93 613.467 1110.8 648.8 1127.6C658.4 1132.13 660.533 1132.67 672.933 1133.07C690.667 1133.73 701.6 1130.67 713.6 1121.6C730.4 1108.93 737.333 1095.33 738.4 1073.73C739.333 1052.27 733.733 1037.73 719.2 1023.73C710.4 1015.2 708.267 1013.87 698.133 1010C688 1006.13 675.6 1004.93 665.333 1006.8ZM690.267 1023.33C709.333 1029.07 723.467 1048 724.267 1068.93C724.667 1081.87 720.533 1093.47 711.867 1103.33C707.6 1108.13 705.333 1108.4 705.333 1103.87C705.333 1100.93 700.8 1091.2 697.867 1087.87C696.267 1086 696.4 1084.8 699.333 1078.27C705.467 1064.8 708.533 1044.27 705.067 1039.6C697.2 1029.47 683.067 1044.4 678.267 1067.87C677.067 1073.2 675.867 1077.87 675.6 1078.27C675.2 1078.53 674.8 1075.2 674.8 1070.67C674.8 1064.4 673.867 1060.4 670.533 1053.33C663.6 1038.13 655.067 1032.8 648.533 1039.33C645.333 1042.53 645.067 1043.47 646 1050.4C647.067 1059.33 651.2 1073.33 654.933 1080.53C657.467 1085.6 657.467 1085.6 654.933 1088.53C651.6 1092.13 648.533 1098.13 647.333 1103.6C646.933 1106 646 1108 645.333 1108C642.667 1108 633.333 1095.6 630.667 1088.53C628.267 1081.87 627.867 1078.8 628.4 1068.67C629.067 1054.13 632 1046.8 640.933 1037.2C653.733 1023.47 672.8 1018.13 690.267 1023.33ZM664.133 1067.6C664.8 1069.33 664.667 1070.93 664 1071.33C662.8 1072.13 657.333 1058.53 657.467 1054.93C657.467 1052.93 660.667 1059.07 664.133 1067.6ZM693.6 1064.27C691.333 1071.07 689.867 1074 689.6 1072.13C689.333 1070.53 690.133 1066.13 691.467 1062.27C694.133 1054 694.533 1053.33 696 1053.33C696.533 1053.33 695.467 1058.27 693.6 1064.27Z" fill="#21282B"/>
<path d="M430.533 1048.53C414.267 1054.4 405.467 1067.6 407.067 1083.73C408.533 1098 420.133 1110.13 435.333 1113.33C440.133 1114.27 458.133 1114.67 488.934 1114.4C534.134 1114 535.467 1113.87 542.134 1110.93C568 1099.2 569.867 1065.33 545.467 1050.93L539.334 1047.33L487.334 1047.07C447.067 1046.8 434.267 1047.07 430.533 1048.53ZM537.334 1063.73C550.667 1070.4 551.334 1089.07 538.534 1096.67C534.267 1099.2 531.6 1099.33 489.334 1099.47C464.8 1099.47 441.733 1098.93 438 1098.4C423.6 1096 417.067 1081.07 425.333 1069.47C430.933 1061.6 432.133 1061.33 484.667 1061.33C527.734 1061.33 533.2 1061.6 537.334 1063.73Z" fill="#21282B"/>
<path d="M486.667 1072.13C486.667 1072.67 485.733 1072.93 484.667 1072.53C483.067 1071.87 482.667 1073.33 482.667 1081.33V1090.93L488.4 1090C491.467 1089.47 494.533 1088.67 495.067 1088.4C496.533 1087.6 494.933 1076 493.2 1073.87C491.6 1071.87 486.667 1070.53 486.667 1072.13ZM490 1077.2C490.4 1077.87 490.133 1078.8 489.333 1079.33C488.667 1079.73 488 1079.2 488 1078.13C488 1075.73 488.8 1075.33 490 1077.2Z" fill="#21282B"/>
<path d="M450.133 1078C449.067 1084.93 447.867 1086.13 444.133 1083.73C442.667 1082.8 440.933 1082.53 440.4 1083.07C438.8 1084.67 441.867 1088.53 445.867 1090C451.067 1091.73 454.533 1087.07 454.667 1078.27C454.667 1069.87 451.333 1069.6 450.133 1078Z" fill="#21282B"/>
<path d="M462 1075.33C457.733 1079.47 457.867 1081.47 462.133 1086.53C466 1091.2 469.067 1091.73 473.067 1088.27C477.333 1084.8 478 1079.87 474.667 1075.6C471.067 1071.07 466.267 1070.93 462 1075.33ZM471.333 1081.33C471.333 1083.47 470.533 1084.8 468.933 1085.07C466.4 1085.6 464.667 1082.4 465.867 1079.2C467.067 1075.87 471.333 1077.47 471.333 1081.33Z" fill="#21282B"/>
<path d="M812.267 1049.2C800.4 1053.33 792.133 1063.73 790 1076.8C788.133 1088.8 795.867 1103.07 808 1109.87L815.333 1114H866.667C916 1114 918.267 1113.87 924 1111.2C932.8 1107.07 938.667 1101.6 942.133 1094C949.6 1078.13 943.067 1058.67 927.467 1050.27C922.133 1047.47 920.8 1047.33 870.667 1047.07C823.6 1046.67 818.8 1046.93 812.267 1049.2ZM921.2 1064C933.6 1070.27 933.6 1089.33 921.2 1096.67C916.933 1099.2 913.867 1099.33 873.333 1099.73C849.467 1100 826.8 1099.73 822.933 1099.33C809.2 1097.6 801.333 1085.87 806 1073.73C808.4 1067.47 812.133 1064.27 819.067 1062.67C821.333 1062 844.267 1061.6 869.733 1061.47C913.2 1061.33 916.4 1061.47 921.2 1064Z" fill="#21282B"/>
<path d="M868.933 1071.47C868.4 1072 868 1075.33 868 1078.93C868 1085.33 867.067 1086.53 864.4 1083.87C862.133 1081.6 860.933 1084.8 862.933 1088C865.467 1092 870 1091.47 871.867 1086.8C874.8 1079.87 872.4 1068 868.933 1071.47Z" fill="#21282B"/>
<path d="M901.333 1079.87C901.333 1090 902.8 1091.73 909.867 1089.87C913.867 1088.93 914.8 1086.4 914 1079.33C913.2 1073.33 910.533 1070.67 905.067 1070.67C901.333 1070.67 901.333 1070.67 901.333 1079.87ZM910 1083.87C910.4 1084.53 910.133 1085.47 909.333 1086C908.667 1086.4 908 1085.87 908 1084.8C908 1082.4 908.8 1082 910 1083.87Z" fill="#21282B"/>
<path d="M881.333 1074.67C876.4 1079.6 878.667 1088.27 885.467 1090C889.6 1091.07 896 1085.6 896 1081.07C896 1072.93 886.933 1069.07 881.333 1074.67ZM890 1077.33C891.333 1079.47 889.333 1084 887.2 1084C884.533 1084 883.333 1080.4 885.333 1078C887.2 1075.73 888.8 1075.47 890 1077.33Z" fill="#21282B"/>
</svg>
