<svg xmlns="http://www.w3.org/2000/svg" xmlns:xlink="http://www.w3.org/1999/xlink" width="500" zoomAndPan="magnify" viewBox="0 0 375 374.999991" height="500" preserveAspectRatio="xMidYMid meet" version="1.0"><path fill="#8093ff" d="M 264.941406 313.542969 L 106.835938 313.542969 C 92.015625 313.542969 82.523438 297.761719 89.460938 284.660156 C 92.972656 278.023438 92.40625 269.964844 87.996094 263.890625 L 78.441406 250.726562 C 59.652344 224.835938 72.535156 188.144531 103.378906 179.699219 L 110.363281 177.785156 C 133.058594 171.574219 145.820312 147.496094 138.226562 125.214844 C 126.839844 91.792969 160.335938 60.640625 192.816406 74.4375 L 206.496094 80.25 C 213.832031 83.367188 221.835938 84.585938 229.765625 83.792969 L 252.171875 81.550781 C 282.648438 78.503906 308.253906 104.183594 305.140625 134.667969 L 300.070312 184.257812 C 298.792969 196.738281 302.410156 209.226562 310.152344 219.09375 L 315.402344 225.78125 C 332.09375 247.050781 328.140625 277.875 306.625 294.242188 L 294.238281 303.667969 C 285.8125 310.074219 275.523438 313.542969 264.941406 313.542969 Z M 264.941406 313.542969 " fill-opacity="1" fill-rule="nonzero"/><path fill="#21282b" d="M 272.746094 284.640625 C 266.191406 286.132812 269.898438 303.980469 272.671875 313.042969 C 272.769531 313.359375 273.058594 313.570312 273.386719 313.570312 L 279.734375 313.570312 C 280.113281 313.570312 280.429688 313.292969 280.480469 312.921875 C 282.339844 298.976562 280.972656 282.765625 272.746094 284.640625 Z M 272.746094 284.640625 " fill-opacity="1" fill-rule="nonzero"/><path fill="#ffffff" d="M 302.289062 248.613281 C 284.078125 247.417969 276.660156 289.882812 275.152344 312.023438 C 275.121094 312.460938 275.46875 312.8125 275.90625 312.8125 L 290.890625 312.8125 C 291.167969 312.8125 291.417969 312.671875 291.546875 312.425781 C 302.886719 291.402344 320.609375 249.8125 302.289062 248.613281 Z M 302.289062 248.613281 " fill-opacity="1" fill-rule="nonzero"/><path fill="#21282b" d="M 275.90625 312.058594 L 290.886719 312.058594 C 296.546875 301.566406 303.777344 285.980469 307.3125 272.886719 C 309.082031 266.324219 309.898438 260.488281 309.1875 256.257812 C 308.835938 254.15625 308.117188 252.507812 307.007812 251.359375 C 305.914062 250.222656 304.375 249.503906 302.242188 249.367188 C 298.03125 249.089844 294.367188 251.316406 291.171875 255.371094 C 287.972656 259.429688 285.324219 265.21875 283.175781 271.800781 C 278.882812 284.949219 276.660156 301.023438 275.90625 312.058594 Z M 289.984375 254.433594 C 293.351562 250.167969 297.445312 247.535156 302.339844 247.859375 C 304.785156 248.019531 306.699219 248.863281 308.097656 250.3125 C 309.480469 251.75 310.292969 253.714844 310.679688 256.007812 C 311.445312 260.570312 310.554688 266.671875 308.769531 273.28125 C 305.191406 286.539062 297.894531 302.25 292.210938 312.785156 C 291.945312 313.285156 291.429688 313.570312 290.886719 313.570312 L 275.902344 313.570312 C 275.054688 313.570312 274.335938 312.867188 274.398438 311.972656 C 275.15625 300.867188 277.394531 284.648438 281.738281 271.332031 C 283.910156 264.679688 286.625 258.695312 289.984375 254.433594 Z M 289.984375 254.433594 " fill-opacity="1" fill-rule="evenodd"/><path fill="#21282b" d="M 311.417969 277.003906 C 300.773438 275.5 291.644531 299.660156 288.160156 312.632812 C 288.03125 313.109375 288.394531 313.570312 288.890625 313.570312 L 297.019531 313.570312 C 297.25 313.570312 297.460938 313.472656 297.605469 313.292969 C 306.847656 301.773438 322.238281 278.53125 311.417969 277.003906 Z M 311.417969 277.003906 " fill-opacity="1" fill-rule="nonzero"/><path fill="#21282b" d="M 298.445312 265.894531 L 301.878906 254.878906 L 300.4375 254.429688 L 293.421875 276.9375 L 289.351562 269.765625 L 288.039062 270.511719 L 292.804688 278.914062 L 285.902344 301.0625 L 282.148438 295.402344 L 280.890625 296.234375 L 285.320312 302.921875 L 282.308594 312.589844 L 283.75 313.039062 L 289.898438 293.320312 L 297.507812 289.3125 L 296.804688 287.976562 L 290.535156 291.277344 L 297.789062 268.003906 L 304.175781 264.375 L 303.429688 263.0625 Z M 298.445312 265.894531 " fill-opacity="1" fill-rule="evenodd"/><path fill="#ffffff" d="M 286.953125 158.179688 L 289.992188 156.457031 C 290.535156 156.148438 291.152344 156.714844 290.890625 157.28125 L 289.460938 160.378906 C 289.371094 160.566406 289.382812 160.785156 289.484375 160.964844 L 291.328125 164.210938 C 291.625 164.738281 291.101562 165.34375 290.539062 165.125 L 287.015625 163.765625 C 286.847656 163.699219 286.65625 163.710938 286.492188 163.796875 L 282.808594 165.707031 C 282.261719 165.992188 281.671875 165.414062 281.9375 164.859375 L 283.632812 161.359375 C 283.714844 161.1875 283.71875 160.992188 283.640625 160.816406 L 281.90625 156.957031 C 281.648438 156.390625 282.273438 155.828125 282.808594 156.140625 L 286.316406 158.179688 C 286.511719 158.292969 286.757812 158.292969 286.953125 158.179688 Z M 286.953125 158.179688 " fill-opacity="1" fill-rule="nonzero"/><path fill="#ffffff" d="M 290.109375 201.207031 L 291.238281 201.125 C 291.859375 201.082031 292.171875 201.859375 291.691406 202.257812 L 290.851562 202.957031 C 290.691406 203.089844 290.605469 203.289062 290.621094 203.496094 L 290.71875 204.859375 C 290.761719 205.460938 290.03125 205.785156 289.617188 205.347656 L 288.648438 204.324219 C 288.519531 204.191406 288.34375 204.117188 288.160156 204.125 L 286.585938 204.179688 C 285.96875 204.199219 285.679688 203.425781 286.160156 203.039062 L 287.269531 202.152344 C 287.414062 202.035156 287.503906 201.855469 287.507812 201.667969 L 287.542969 200.070312 C 287.554688 199.449219 288.359375 199.210938 288.710938 199.722656 L 289.535156 200.929688 C 289.664062 201.117188 289.882812 201.222656 290.109375 201.207031 Z M 290.109375 201.207031 " fill-opacity="1" fill-rule="nonzero"/><path fill="#9dacff" d="M 117.496094 123.246094 L 114.632812 127.089844 C 114.457031 127.324219 114.171875 127.4375 113.894531 127.382812 L 110.351562 126.6875 C 109.589844 126.539062 109.128906 127.539062 109.71875 128.070312 L 112.5 130.574219 C 112.703125 130.753906 112.800781 131.035156 112.753906 131.3125 L 112.054688 135.441406 C 111.925781 136.214844 112.835938 136.695312 113.355469 136.125 L 116.214844 132.953125 C 116.382812 132.765625 116.625 132.675781 116.867188 132.710938 L 120.175781 133.183594 C 120.921875 133.289062 121.34375 132.316406 120.777344 131.796875 L 118.316406 129.550781 C 118.117188 129.367188 118.023438 129.09375 118.066406 128.824219 L 118.84375 123.863281 C 118.96875 123.054688 117.980469 122.601562 117.496094 123.246094 Z M 117.496094 123.246094 " fill-opacity="1" fill-rule="nonzero"/><path fill="#ff914d" d="M 56.992188 210.757812 C 56.5625 211.375 56.722656 213.066406 56.855469 213.835938 L 50.144531 217.710938 C 49.921875 217.070312 49.171875 215.574219 47.945312 214.699219 C 46.414062 213.609375 43.722656 203.890625 43.324219 201.585938 C 42.925781 199.28125 47.566406 195.082031 49.691406 195.730469 C 51.394531 196.25 54.148438 202.085938 55.3125 204.9375 C 56.8125 201.964844 59.53125 202.171875 59.589844 202.5 C 59.648438 202.832031 57.53125 209.984375 56.992188 210.757812 Z M 56.992188 210.757812 " fill-opacity="1" fill-rule="nonzero"/><path fill="#ff914d" d="M 193.054688 295.246094 C 192.386719 293.691406 192.089844 291.667969 192.023438 290.847656 L 183.5 291.777344 C 183.753906 293.386719 184.253906 297.242188 184.246094 299.8125 C 184.242188 303.027344 184.4375 305.480469 185.359375 304.550781 C 186.097656 303.804688 186.65625 303.054688 186.84375 302.773438 C 187.09375 303.308594 187.71875 304.566406 188.199219 305.3125 C 188.796875 306.242188 191.039062 306.074219 193.160156 303.789062 C 195.285156 301.503906 193.890625 297.191406 193.054688 295.246094 Z M 193.054688 295.246094 " fill-opacity="1" fill-rule="nonzero"/><path fill="#21282b" d="M 179.414062 294.265625 L 183.816406 313.648438 L 112.777344 313.648438 L 112.246094 311.65625 Z M 179.414062 294.265625 " fill-opacity="1" fill-rule="nonzero"/><path fill="#ff914d" d="M 117.28125 190.75 L 116.601562 197.832031 C 116.261719 201.375 119.730469 204.886719 127.441406 203.550781 C 133.613281 202.480469 133.542969 196.585938 132.738281 193.769531 L 129.867188 186.355469 C 131.140625 184.550781 132.214844 183.414062 130.9375 176.039062 C 129.339844 166.816406 123.820312 164.292969 117.957031 165.308594 C 112.097656 166.324219 108.011719 172.089844 109.554688 181.007812 C 110.886719 188.691406 115.425781 190.4375 117.28125 190.75 Z M 117.28125 190.75 " fill-opacity="1" fill-rule="nonzero"/><path fill="#21282b" d="M 100.933594 186.480469 C 97.09375 192.238281 98.261719 199.800781 99.625 203.386719 C 105.128906 199.746094 112.644531 196.625 117.09375 195.753906 L 117.371094 190.722656 C 113.800781 189.65625 111.328125 187.203125 109.789062 180.148438 C 109 173.378906 110.554688 170.425781 112.386719 168.574219 C 117.273438 167.410156 119.960938 173.316406 121.933594 175.519531 C 123.511719 177.285156 124.382812 176.792969 124.621094 176.328125 C 125.519531 172.351562 128.246094 171.5625 129.558594 175.472656 C 130.613281 178.601562 127.382812 181.261719 127.382812 181.261719 C 127.382812 181.261719 132.507812 193.96875 132.425781 193.484375 C 138.5 192.253906 146.523438 193.726562 149.453125 194.367188 C 148.664062 184.316406 140.109375 181.285156 136.566406 175.53125 C 133.027344 169.777344 135.886719 166.097656 132.722656 162.507812 C 130.375 159.847656 126.882812 160.019531 124.613281 159.773438 C 122.34375 159.53125 120.683594 157.273438 117.996094 156.464844 C 113.40625 155.667969 109.949219 160.191406 109.28125 163.066406 C 108.542969 163.089844 106.535156 163.734375 104.40625 166.140625 C 98.160156 172.316406 105.726562 179.285156 100.933594 186.480469 Z M 100.933594 186.480469 " fill-opacity="1" fill-rule="nonzero"/><path fill="#21282b" d="M 123.945312 188.816406 C 121.597656 190.757812 118.058594 190.980469 117.375 190.722656 L 116.902344 194.640625 C 120.976562 194.535156 123.417969 190.667969 123.945312 188.816406 Z M 123.945312 188.816406 " fill-opacity="1" fill-rule="nonzero"/><path fill="#9dacff" d="M 125.25 198.5625 C 129.71875 197.789062 132.101562 194.5625 132.734375 193.046875 C 150.554688 191.875 158.75 197.820312 164.417969 203.28125 C 173.164062 211.703125 179.503906 230.582031 182.796875 240.75 C 186.09375 250.917969 196.203125 287.136719 194.484375 290.5 C 193.109375 293.195312 185.234375 294.660156 181.46875 295.058594 C 178.40625 301.726562 116.550781 314.359375 108.332031 311.183594 C 101.753906 308.640625 97.648438 273.148438 96.421875 255.71875 C 90.765625 262.195312 77.480469 274.339844 69.558594 271.109375 C 59.65625 267.074219 45.648438 223.859375 46.183594 220.316406 C 46.722656 216.769531 58.234375 210.175781 61.046875 213.136719 C 63.300781 215.507812 70.808594 227.425781 74.972656 233.738281 C 76.332031 232.734375 79.703125 225.628906 88.078125 214.207031 C 96.707031 202.4375 110.480469 197.414062 116.722656 195.820312 C 117.457031 197.101562 120.785156 199.335938 125.25 198.5625 Z M 125.25 198.5625 " fill-opacity="1" fill-rule="nonzero"/><path fill="#21282b" d="M 83.140625 267.605469 C 75.699219 261.839844 65.851562 261.523438 61.859375 262.089844 C 62.953125 264.710938 66.273438 270.300781 70.804688 271.660156 C 75.335938 273.023438 80.917969 269.527344 83.140625 267.605469 Z M 83.140625 267.605469 " fill-opacity="1" fill-rule="nonzero"/><path fill="#21282b" d="M 96.402344 233.476562 L 96.417969 255.71875 L 92.53125 259.84375 C 92.804688 256.113281 95.226562 240.710938 96.402344 233.476562 Z M 96.402344 233.476562 " fill-opacity="1" fill-rule="nonzero"/><path fill="#21282b" d="M 164.035156 220.988281 C 167.546875 234.1875 177.121094 275.867188 181.46875 295.058594 L 183.328125 294.734375 C 182.195312 288.921875 178.585938 273.542969 174.707031 258.261719 C 170.832031 242.976562 166.101562 227.023438 164.035156 220.988281 Z M 164.035156 220.988281 " fill-opacity="1" fill-rule="nonzero"/><path fill="#ffffff" d="M 149.75 102.070312 C 149.75 97.0625 153.804688 93.003906 158.8125 93.003906 L 261.925781 93.003906 C 266.933594 93.003906 270.992188 97.0625 270.992188 102.070312 L 270.992188 303.695312 C 270.992188 308.703125 266.933594 312.757812 261.925781 312.757812 L 158.8125 312.757812 C 153.804688 312.757812 149.75 308.703125 149.75 303.695312 Z M 149.75 102.070312 " fill-opacity="1" fill-rule="nonzero"/><path fill="#21282b" d="M 148.992188 102.070312 C 148.992188 96.648438 153.390625 92.25 158.8125 92.25 L 261.929688 92.25 C 267.351562 92.25 271.746094 96.648438 271.746094 102.070312 L 271.746094 303.695312 C 271.746094 309.117188 267.351562 313.515625 261.929688 313.515625 L 158.8125 313.515625 C 153.390625 313.515625 148.992188 309.117188 148.992188 303.695312 Z M 158.8125 93.761719 C 154.222656 93.761719 150.503906 97.480469 150.503906 102.070312 L 150.503906 303.695312 C 150.503906 308.285156 154.222656 312.003906 158.8125 312.003906 L 261.929688 312.003906 C 266.515625 312.003906 270.238281 308.285156 270.238281 303.695312 L 270.238281 102.070312 C 270.238281 97.480469 266.515625 93.761719 261.929688 93.761719 Z M 158.8125 93.761719 " fill-opacity="1" fill-rule="evenodd"/><path fill="#8093ff" d="M 238.121094 160.96875 C 238.121094 176.40625 225.609375 188.917969 210.175781 188.917969 C 194.738281 188.917969 182.226562 176.40625 182.226562 160.96875 C 182.226562 145.535156 194.738281 133.023438 210.175781 133.023438 C 225.609375 133.023438 238.121094 145.535156 238.121094 160.96875 Z M 238.121094 160.96875 " fill-opacity="1" fill-rule="nonzero"/><path fill="#21282b" d="M 190.535156 229.703125 C 190.535156 236.378906 185.125 241.789062 178.449219 241.789062 C 171.777344 241.789062 166.367188 236.378906 166.367188 229.703125 C 166.367188 223.03125 171.777344 217.617188 178.449219 217.617188 C 185.125 217.617188 190.535156 223.03125 190.535156 229.703125 Z M 190.535156 229.703125 " fill-opacity="1" fill-rule="nonzero"/><path fill="#8093ff" d="M 223.011719 229.703125 C 223.011719 236.378906 217.601562 241.789062 210.929688 241.789062 C 204.253906 241.789062 198.84375 236.378906 198.84375 229.703125 C 198.84375 223.03125 204.253906 217.617188 210.929688 217.617188 C 217.601562 217.617188 223.011719 223.03125 223.011719 229.703125 Z M 223.011719 229.703125 " fill-opacity="1" fill-rule="nonzero"/><path fill="#8093ff" d="M 255.492188 229.703125 C 255.492188 236.378906 250.082031 241.789062 243.40625 241.789062 C 236.734375 241.789062 231.324219 236.378906 231.324219 229.703125 C 231.324219 223.03125 236.734375 217.617188 243.40625 217.617188 C 250.082031 217.617188 255.492188 223.03125 255.492188 229.703125 Z M 255.492188 229.703125 " fill-opacity="1" fill-rule="nonzero"/><path fill="#21282b" d="M 186.261719 100.375 L 182.332031 93.003906 L 238.410156 93.003906 L 233.789062 100.703125 C 232.421875 102.980469 229.964844 104.371094 227.3125 104.371094 L 192.925781 104.371094 C 190.136719 104.371094 187.574219 102.835938 186.261719 100.375 Z M 186.261719 100.375 " fill-opacity="1" fill-rule="nonzero"/><path fill="#21282b" d="M 269.503906 97.550781 L 150.460938 97.550781 C 154.402344 93.613281 158.164062 92.878906 159.554688 93.003906 L 260.410156 93.003906 C 265.261719 93.003906 268.492188 96.035156 269.503906 97.550781 Z M 269.503906 97.550781 " fill-opacity="1" fill-rule="nonzero"/><path fill="#21282b" d="M 269.414062 308.449219 L 151.257812 308.449219 C 155.355469 312.453125 157.722656 313.199219 159.164062 313.070312 L 261.507812 313.070312 C 266.546875 313.070312 268.363281 309.988281 269.414062 308.449219 Z M 269.414062 308.449219 " fill-opacity="1" fill-rule="nonzero"/><path fill="#9dacff" d="M 167.121094 121.695312 C 167.121094 120.859375 167.796875 120.183594 168.632812 120.183594 L 208.855469 120.183594 C 209.691406 120.183594 210.367188 120.859375 210.367188 121.695312 L 210.367188 123.304688 C 210.367188 124.140625 209.691406 124.816406 208.855469 124.816406 L 168.632812 124.816406 C 167.796875 124.816406 167.121094 124.140625 167.121094 123.304688 Z M 167.121094 121.695312 " fill-opacity="1" fill-rule="nonzero"/><path fill="#21282b" d="M 196.578125 198.738281 C 196.578125 197.902344 197.253906 197.226562 198.089844 197.226562 L 226.035156 197.226562 C 226.867188 197.226562 227.546875 197.902344 227.546875 198.738281 L 227.546875 200.246094 C 227.546875 201.082031 226.867188 201.757812 226.035156 201.757812 L 198.089844 201.757812 C 197.253906 201.757812 196.578125 201.082031 196.578125 200.246094 Z M 196.578125 198.738281 " fill-opacity="1" fill-rule="nonzero"/><path fill="#8093ff" d="M 167.875 253.121094 C 167.875 252.285156 168.550781 251.609375 169.386719 251.609375 L 250.203125 251.609375 C 251.039062 251.609375 251.714844 252.285156 251.714844 253.121094 L 251.714844 266.714844 C 251.714844 267.550781 251.039062 268.226562 250.203125 268.226562 L 169.386719 268.226562 C 168.550781 268.226562 167.875 267.550781 167.875 266.714844 Z M 167.875 253.121094 " fill-opacity="1" fill-rule="nonzero"/><path fill="#8093ff" d="M 167.875 280.308594 C 167.875 279.476562 168.550781 278.800781 169.386719 278.800781 L 250.203125 278.800781 C 251.039062 278.800781 251.714844 279.476562 251.714844 280.308594 L 251.714844 293.90625 C 251.714844 294.738281 251.039062 295.417969 250.203125 295.417969 L 169.386719 295.417969 C 168.550781 295.417969 167.875 294.738281 167.875 293.90625 Z M 167.875 280.308594 " fill-opacity="1" fill-rule="nonzero"/><path fill="#21282b" d="M 260.96875 103.804688 L 262.476562 103.804688 L 262.476562 109.980469 L 260.96875 109.980469 Z M 260.96875 103.804688 " fill-opacity="1" fill-rule="evenodd"/><path fill="#21282b" d="M 257.105469 104.574219 L 258.617188 104.574219 L 258.617188 109.980469 L 257.105469 109.980469 Z M 257.105469 104.574219 " fill-opacity="1" fill-rule="evenodd"/><path fill="#21282b" d="M 253.246094 106.121094 L 254.757812 106.121094 L 254.757812 109.980469 L 253.246094 109.980469 Z M 253.246094 106.121094 " fill-opacity="1" fill-rule="evenodd"/><path fill="#21282b" d="M 249.382812 107.664062 L 250.894531 107.664062 L 250.894531 109.980469 L 249.382812 109.980469 Z M 249.382812 107.664062 " fill-opacity="1" fill-rule="evenodd"/><path fill="#ff914d" d="M 206.050781 164.480469 L 204.824219 169.390625 C 204.210938 171.84375 206.277344 174.683594 211.84375 174.558594 C 216.296875 174.460938 216.875 170.304688 216.605469 168.238281 L 215.367188 162.71875 C 216.457031 161.585938 217.332031 160.902344 217.214844 155.578125 C 217.066406 148.925781 213.449219 146.5625 209.21875 146.65625 C 204.988281 146.753906 201.503906 150.375 201.648438 156.8125 C 201.773438 162.355469 204.78125 164.066406 206.050781 164.480469 Z M 206.050781 164.480469 " fill-opacity="1" fill-rule="nonzero"/><path fill="#21282b" d="M 195.003906 159.75 C 191.695312 163.394531 191.714844 168.835938 192.292969 171.5 C 196.550781 169.523438 202.167969 168.121094 205.390625 167.980469 L 206.117188 164.472656 C 203.71875 163.34375 202.238281 161.355469 201.902344 156.230469 C 202.0625 151.386719 203.46875 149.472656 204.953125 148.367188 C 208.515625 148.0625 209.78125 152.5 210.933594 154.261719 C 211.859375 155.667969 212.523438 155.417969 212.738281 155.113281 C 213.792969 152.414062 215.792969 152.144531 216.304688 155.035156 C 216.710938 157.347656 214.160156 158.875 214.160156 158.875 C 214.160156 158.875 216.421875 168.355469 216.414062 168.003906 C 220.816406 167.785156 226.304688 169.667969 228.296875 170.429688 C 228.804688 163.277344 223.109375 160.238281 221.226562 155.816406 C 219.34375 151.394531 221.746094 149.113281 219.898438 146.25 C 218.53125 144.132812 216.054688 143.882812 214.484375 143.472656 C 212.914062 143.058594 211.984375 141.296875 210.183594 140.441406 C 207.035156 139.394531 204.125 142.214844 203.351562 144.164062 C 202.832031 144.101562 201.347656 144.34375 199.597656 145.808594 C 194.550781 149.492188 199.136719 155.191406 195.003906 159.75 Z M 195.003906 159.75 " fill-opacity="1" fill-rule="nonzero"/><path fill="#21282b" d="M 210.941406 163.824219 C 209.085938 164.941406 206.570312 164.726562 206.117188 164.472656 L 205.371094 167.175781 C 208.246094 167.535156 210.375 165.074219 210.941406 163.824219 Z M 210.941406 163.824219 " fill-opacity="1" fill-rule="nonzero"/><path fill="#9dacff" d="M 210.828125 170.816406 C 214.054688 170.746094 216.070312 168.730469 216.675781 167.730469 C 226 168.511719 231.242188 171.460938 234.722656 174.730469 C 232.078125 179.851562 223.769531 188.917969 210.828125 188.917969 C 196.957031 188.917969 189.277344 179.828125 186.003906 175.28125 C 192.898438 170.011719 201.152344 168.386719 205.121094 167.988281 C 205.5 168.964844 207.605469 170.890625 210.828125 170.816406 Z M 210.828125 170.816406 " fill-opacity="1" fill-rule="nonzero"/></svg>