<svg width="416" height="138" viewBox="0 0 416 138" fill="none" xmlns="http://www.w3.org/2000/svg">
<path d="M0 68.6668V137.333H207.733H415.333V68.6668V0.000155598H207.733H0V68.6668ZM89.7333 41.4668C90 49.0668 90.5333 50.5335 92.6667 51.0668C95.0667 51.7335 95.3333 52.9335 95.3333 61.8668V72.0002H91.3333C85.2 72.0002 78.1333 76.8002 78 80.9335C78 81.7335 81.0667 83.0668 84.9333 83.8668C93.0667 85.7335 95.3333 87.3335 95.3333 91.3335C95.3333 95.2002 94 96.4002 91.7333 94.5335C90.5333 93.3335 90.4 92.5335 91.3333 91.3335C92.9333 89.3335 91.8667 88.9335 82.9333 87.3335L77.7333 86.5335L78.2667 92.9335C78.6667 98.6668 78.4 99.3335 75.7333 99.7335C72.9333 100.133 72.8 99.8668 73.4667 94.2668C74 90.9335 73.7333 88.0002 73.0667 87.6002C72.2667 87.0668 69.0667 87.2002 65.8667 87.7335C60.9333 88.6668 60 89.2002 60.4 91.6002C60.9333 95.2002 58.8 96.5335 56.6667 94.0002C53.4667 90.2668 56.4 86.8002 64.8 84.4002C73.3333 82.0002 74.1333 80.8002 70 76.2668C67.4667 73.6002 65.3333 72.6668 58.6667 71.7335C56.4 71.3335 56 70.1335 55.6 62.4002C55.2 54.5335 55.6 53.2002 58 51.7335C60.1333 50.4002 60.6667 48.6668 60.6667 43.0668C60.6667 31.7335 60.4 31.8668 75.8667 32.2668L89.3333 32.6668L89.7333 41.4668ZM134 49.0668C134 50.4002 130.133 56.2668 125.333 62.2668L116.8 73.2002L125.067 73.6002C132.533 74.0002 133.333 74.2668 133.733 76.9335C134.133 80.0002 133.867 80.0002 120.8 80.0002C107.467 80.0002 107.333 80.0002 107.333 76.8002C107.333 74.8002 110.533 69.4668 115.333 63.4668C119.733 57.8668 123.333 53.0668 123.333 52.6668C123.333 52.2668 119.733 52.0002 115.333 52.0002C108.267 52.0002 107.333 51.7335 107.333 49.3335C107.333 46.8002 108.267 46.6668 120.667 46.6668C132.533 46.6668 134 46.9335 134 49.0668ZM142.667 50.0002C142.667 52.9335 138.533 54.4002 136.4 52.2668C134.133 50.0002 136.267 46.4002 139.6 46.9335C141.6 47.2002 142.667 48.2668 142.667 50.0002ZM194.533 49.4668C199.067 53.0668 199.2 58.9335 194.667 63.4668L191.2 66.9335L195.333 73.4668L199.333 80.0002H194.933C190.933 80.0002 190.133 79.3335 187.333 73.3335C185.6 69.6002 183.467 66.6668 182.4 66.6668C181.2 66.6668 180.667 68.6668 180.667 73.3335C180.667 79.8668 180.533 80.0002 176.667 80.0002H172.667V63.3335V46.6668H181.867C189.067 46.6668 191.733 47.2002 194.533 49.4668ZM293.2 48.6668C293.6 49.7335 292.933 51.4668 291.867 52.5335C289.2 55.2002 286 53.7335 286 49.8668C286 47.3335 286.667 46.6668 289.2 46.6668C290.933 46.6668 292.667 47.6002 293.2 48.6668ZM306 54.0002C306 56.4002 306.667 57.3335 308.667 57.3335C310.4 57.3335 311.333 58.2668 311.333 60.0002C311.333 61.7335 310.4 62.6668 308.667 62.6668C306.4 62.6668 306 63.6002 306 68.6668C306 73.8668 306.4 74.6668 308.8 74.6668C310.8 74.6668 311.467 75.3335 311.067 77.6002C310.533 81.4668 306.8 82.1335 302.667 79.4668C299.733 77.6002 299.333 76.2668 299.333 70.0002C299.333 63.6002 299.067 62.6668 296.667 62.6668C294.933 62.6668 294 61.7335 294 60.0002C294 58.2668 294.933 57.3335 296.667 57.3335C298.4 57.3335 299.333 56.4002 299.333 54.8002C299.333 52.5335 300.933 51.4668 305.067 50.8002C305.6 50.8002 306 52.1335 306 54.0002ZM360.267 52.8002C360.667 53.8668 360 55.8668 358.8 57.0668C356.8 59.0668 356.533 59.0668 354.533 57.0668C351.733 54.2668 353.067 50.6668 356.667 50.6668C358.133 50.6668 359.733 51.6002 360.267 52.8002ZM167.6 60.0002C171.2 63.6002 171.6 64.8002 170.933 69.4668C169.733 78.4002 163.467 82.8002 156.133 80.0002C152.667 78.8002 152.667 78.8002 152.667 84.6668C152.667 90.1335 152.4 90.6668 149.333 90.6668H146V73.8668V56.9335L149.733 57.7335C151.733 58.1335 154.267 58.0002 155.333 57.2002C159.067 54.9335 163.6 56.0002 167.6 60.0002ZM215.2 58.0002C218.533 59.6002 222 65.6002 222 69.4668C222 70.1335 218 70.6668 213.2 70.6668C206.8 70.6668 204.533 71.0668 204.933 72.2668C205.733 74.5335 212.4 75.2002 214.533 73.4668C217.2 71.2002 220.267 75.2002 218.133 77.8668C214 82.8002 202.667 80.9335 199.333 74.8002C196.133 68.6668 199.067 59.7335 205.2 57.3335C209.333 55.6002 211.067 55.7335 215.2 58.0002ZM242.533 58.6668C244.933 61.0668 240.8 63.8668 236 63.0668C232 62.4002 231.2 62.8002 230.267 65.4668C228 71.6002 231.733 76.0002 237.867 74.0002C239.2 73.6002 241.067 74.1335 242 75.3335C246.667 80.9335 232.533 82.9335 226.8 77.4668C220.4 71.4668 222.933 60.1335 231.333 56.9335C233.867 55.8668 240.8 56.9335 242.533 58.6668ZM260.667 59.3335C260.667 61.6002 260 62.6668 258.267 62.6668C254.267 62.6668 252.667 65.6002 252.667 72.9335C252.667 79.6002 252.533 80.0002 249.333 80.0002C246 80.0002 246 79.8668 246 68.6668C246 58.2668 246.267 57.3335 248.667 57.3335C250.133 57.3335 251.333 58.0002 251.333 58.8002C251.333 59.4668 252.667 59.2002 254.267 58.1335C258.533 55.0668 260.667 55.4668 260.667 59.3335ZM329.867 58.0002C333.2 59.6002 336.667 65.6002 336.667 69.4668C336.667 70.1335 332.667 70.6668 327.867 70.6668C321.467 70.6668 319.2 71.0668 319.6 72.2668C320.4 74.5335 327.067 75.2002 329.2 73.4668C331.867 71.2002 334.933 75.2002 332.8 77.8668C328.667 82.8002 317.333 80.9335 314 74.8002C310.8 68.6668 313.733 59.7335 319.867 57.3335C324 55.6002 325.733 55.7335 329.867 58.0002ZM352.667 59.3335C352.667 61.7335 352 62.6668 350 62.6668C346.533 62.6668 344.667 66.5335 344.667 73.8668C344.667 79.4668 344.4 80.0002 341.333 80.0002C338 80.0002 338 79.8668 338 68.6668V57.3335L343.333 57.6002C346.267 57.7335 349.067 57.3335 349.6 56.9335C351.333 55.0668 352.667 56.1335 352.667 59.3335ZM143.333 68.6668C143.333 79.8668 143.333 80.0002 140 80.0002C136.667 80.0002 136.667 79.8668 136.667 68.6668C136.667 57.4668 136.667 57.3335 140 57.3335C143.333 57.3335 143.333 57.4668 143.333 68.6668ZM268.933 65.6002C269.333 73.6002 269.467 74.0002 272.667 74.0002C275.867 74.0002 276 73.6002 276.4 65.6002C276.8 57.8668 276.933 57.3335 280 57.3335C283.2 57.3335 283.333 57.7335 283.333 65.4668C283.333 72.6668 282.933 74.0002 279.467 77.4668C275.067 81.8668 272.8 82.1335 267.467 79.3335C263.067 77.2002 262 74.1335 262 64.2668C262 57.7335 262.267 57.3335 265.333 57.3335C268.4 57.3335 268.533 57.8668 268.933 65.6002ZM292.667 68.6668C292.667 79.8668 292.667 80.0002 289.333 80.0002C286 80.0002 286 79.8668 286 68.6668C286 57.4668 286 57.3335 289.333 57.3335C292.667 57.3335 292.667 57.4668 292.667 68.6668Z" fill="#21282B"/>
<path d="M59.4668 60.9335C59.6001 68.0001 60.2668 67.4668 60.9334 59.6001C61.2001 56.9335 60.9334 54.6668 60.4001 54.6668C59.8668 54.6668 59.3334 57.4668 59.4668 60.9335Z" fill="#21282B"/>
<path d="M90 60.5334C90 63.8667 90.6667 66.9334 91.3333 67.3334C92.1333 67.8667 92.6667 65.6001 92.6667 61.4667C92.6667 57.7334 92.1333 54.6667 91.3333 54.6667C90.6667 54.6667 90 57.3334 90 60.5334Z" fill="#21282B"/>
<path d="M180 56.0002C180 59.7336 180.267 60.0002 185.067 60.0002C188.267 60.0002 190.4 59.3336 190.8 58.0002C192 54.9336 188.8 52.0002 184.133 52.0002C180.4 52.0002 180 52.4002 180 56.0002Z" fill="#21282B"/>
<path d="M154 65.3334C152 69.2001 153.6 73.2001 157.467 74.1334C161.467 75.2001 164.667 72.6668 164.667 68.8001C164.667 62.6668 156.8 60.2668 154 65.3334Z" fill="#21282B"/>
<path d="M206 63.3335C204.533 65.0668 205.067 65.3335 209.2 65.3335C214.133 65.3335 215.6 63.6002 211.867 62.1335C208.8 60.9335 207.867 61.0668 206 63.3335Z" fill="#21282B"/>
<path d="M320.667 63.3335C319.2 65.0668 319.733 65.3335 323.867 65.3335C328.8 65.3335 330.267 63.6002 326.533 62.1335C323.467 60.9335 322.533 61.0668 320.667 63.3335Z" fill="#21282B"/>
</svg>
