<svg width="2500" height="600" viewBox="0 0 2500 600" fill="none" xmlns="http://www.w3.org/2000/svg">
<g clip-path="url(#clip0_1116_645)">
<path d="M1889.36 154.517C1889.36 137.695 1901.9 124.611 1918.43 124.611C1936.11 124.611 1948.08 138.318 1948.08 154.517C1948.08 170.717 1935.54 184.424 1918.43 184.424C1901.9 185.047 1889.36 170.717 1889.36 154.517ZM1939.53 219.938C1940.67 219.938 1941.81 221.184 1941.81 222.43V418.692C1941.81 419.938 1940.67 421.184 1939.53 421.184H1897.91C1896.77 421.184 1895.63 419.938 1895.63 418.692V222.43C1895.63 221.184 1896.77 219.938 1897.91 219.938H1939.53ZM420.799 372.586L563.322 174.455C563.893 173.832 563.322 172.586 562.182 172.586H424.79C423.65 172.586 422.509 171.34 422.509 170.094V127.103C422.509 125.857 423.65 124.611 424.79 124.611H628.883C630.023 124.611 631.164 125.857 631.164 127.103V171.34C631.164 171.963 631.164 172.586 630.593 173.209L486.36 371.34C485.79 371.963 486.36 373.209 487.5 373.209H628.883C630.023 373.209 631.164 374.455 631.164 375.701V418.692C631.164 419.938 630.023 421.184 628.883 421.184H422.509C421.369 421.184 420.229 419.938 420.229 418.692V374.455C420.229 373.832 420.799 373.209 420.799 372.586ZM966.378 127.103C966.378 125.857 967.519 124.611 968.659 124.611H1053.6C1131.71 124.611 1161.92 155.763 1161.92 209.346C1161.92 264.798 1125.43 287.851 1100.92 290.966C1100.35 290.966 1099.78 291.589 1100.35 292.212L1169.33 418.069C1169.9 419.315 1169.33 421.184 1167.62 421.184H1114.03C1112.89 421.184 1111.75 420.561 1111.75 419.315L1050.18 296.573C1049.61 295.95 1049.04 295.327 1048.47 295.327H1015.41C1014.84 295.327 1014.27 295.95 1014.27 296.573V418.692C1014.27 419.938 1013.13 421.184 1011.99 421.184H968.089C966.949 421.184 965.808 419.938 965.808 418.692V127.103H966.378ZM1055.31 249.844C1090.66 249.844 1114.03 241.122 1114.03 208.723C1114.03 181.309 1097.5 169.471 1056.45 169.471H1015.98C1015.41 169.471 1014.84 170.094 1014.84 170.717V248.598C1014.84 249.221 1015.41 249.844 1015.98 249.844H1055.31ZM1510.82 278.505C1509.68 279.751 1508.54 279.751 1507.4 278.505C1502.27 273.52 1489.15 260.436 1471.48 260.436C1450.96 260.436 1420.17 275.39 1420.17 320.873C1420.17 367.601 1453.81 381.309 1472.62 381.309C1489.72 381.309 1503.98 369.471 1507.97 364.486C1509.11 363.24 1510.25 363.24 1511.39 364.486L1538.75 396.885C1539.89 398.131 1539.32 399.377 1538.75 400.623C1525.07 414.33 1503.41 426.792 1474.33 426.792C1427.58 426.792 1374.57 393.77 1374.57 321.496C1374.57 251.091 1424.73 216.2 1474.33 216.2C1501.7 216.2 1522.79 228.038 1539.32 244.86C1540.46 246.106 1540.46 247.352 1539.32 248.598L1510.82 278.505ZM1217.22 338.318C1216.65 338.318 1216.08 338.941 1216.08 339.564C1218.36 362.617 1241.16 385.67 1265.11 385.67C1290.19 385.67 1302.16 374.455 1313 360.125C1313.57 358.879 1315.28 358.879 1315.85 359.502L1344.92 383.801C1346.06 384.424 1346.06 386.293 1345.49 387.539C1326.68 411.215 1302.73 425.545 1269.1 425.545C1216.08 425.545 1169.33 386.293 1169.33 320.249C1169.33 256.698 1213.23 214.954 1266.25 214.954C1316.42 214.954 1355.18 261.059 1355.18 323.988V335.203C1355.18 336.449 1354.04 337.695 1352.9 337.695L1217.22 338.318ZM1309 300.312C1309.57 300.312 1310.14 299.689 1310.14 299.066C1310.14 274.767 1290.19 252.337 1265.11 252.337C1240.02 252.337 1219.5 269.159 1216.65 298.443C1216.65 299.066 1217.22 299.689 1217.79 299.689L1309 300.312ZM2160.72 338.318C2160.15 338.318 2159.58 338.941 2159.58 339.564C2161.86 362.617 2184.67 385.67 2208.61 385.67C2233.7 385.67 2245.67 374.455 2256.5 360.125C2257.07 358.879 2258.78 358.879 2259.35 359.502L2288.43 383.801C2289.57 384.424 2289.57 386.293 2289 387.539C2270.18 411.215 2246.24 425.545 2212.6 425.545C2159.58 425.545 2112.84 386.293 2112.84 320.249C2112.84 256.698 2156.73 214.954 2209.75 214.954C2259.92 214.954 2298.69 261.059 2298.69 323.988V335.203C2298.69 336.449 2297.55 337.695 2296.41 337.695L2160.72 338.318ZM2252.51 300.312C2253.08 300.312 2253.65 299.689 2253.65 299.066C2253.65 274.767 2233.7 252.337 2208.61 252.337C2183.53 252.337 2163 269.159 2160.15 298.443C2160.15 299.066 2160.72 299.689 2161.29 299.689L2252.51 300.312ZM1564.98 219.938H1600.89C1602.03 219.938 1603.17 220.561 1603.17 221.807L1608.3 251.714H1608.87C1628.26 210.592 1673.86 216.823 1677.86 217.446C1679 217.446 1679.57 218.692 1679.57 221.184V259.813C1679.57 261.059 1678.43 262.306 1677.29 262.306C1677.29 262.306 1668.73 260.436 1661.32 260.436C1631.68 260.436 1610.58 289.72 1608.3 328.972V418.069C1608.3 419.315 1607.16 420.561 1606.02 420.561H1564.41C1563.27 420.561 1562.13 419.315 1562.13 418.069V222.43C1562.7 221.184 1563.84 219.938 1564.98 219.938ZM2325.48 219.938H2361.4C2362.54 219.938 2363.68 220.561 2363.68 221.807L2368.81 251.714H2369.38C2388.76 210.592 2434.37 216.823 2438.36 217.446C2439.5 217.446 2440.07 218.692 2440.07 221.184V259.813C2440.07 261.059 2438.93 262.306 2437.79 262.306C2437.79 262.306 2429.24 260.436 2421.83 260.436C2392.18 260.436 2371.09 289.72 2368.81 328.972V418.069C2368.81 419.315 2367.67 420.561 2366.53 420.561H2324.91C2323.77 420.561 2322.63 419.315 2322.63 418.069V222.43C2323.2 221.184 2324.34 219.938 2325.48 219.938ZM1965.75 260.436V222.43C1965.75 221.184 1966.89 219.938 1968.03 219.938H2002.81C2003.38 219.938 2003.95 219.315 2003.95 218.692V181.932C2003.95 180.686 2004.52 180.063 2005.66 179.439L2047.28 162.617C2048.99 161.994 2050.13 163.24 2050.13 165.109V218.692C2050.13 219.315 2050.7 219.938 2051.27 219.938H2098.58C2099.72 219.938 2100.86 221.184 2100.86 222.43V260.436C2100.86 261.682 2099.72 262.929 2098.58 262.929H2051.27C2050.7 262.929 2050.13 263.552 2050.13 264.175V350.779C2050.13 368.225 2052.98 383.178 2075.78 383.178C2084.33 383.178 2092.88 381.309 2098.58 378.816C2099.72 378.193 2100.86 379.439 2100.86 380.686V417.446C2100.86 418.692 2100.29 419.938 2099.15 420.561C2091.74 424.299 2077.49 426.168 2064.38 426.168C2042.14 426.168 2027.32 421.184 2018.77 411.838C2010.79 403.115 2004.52 389.408 2004.52 355.14V264.175C2004.52 263.552 2003.95 262.929 2003.38 262.929H1968.6C1966.89 262.929 1965.75 261.682 1965.75 260.436ZM1780.47 382.555C1762.23 382.555 1746.84 370.094 1746.27 347.664V222.43C1746.27 221.184 1745.13 219.938 1743.99 219.938H1702.37C1701.23 219.938 1700.09 221.184 1700.09 222.43V342.056C1700.09 391.278 1733.72 426.168 1779.9 426.168H1781.04C1827.22 426.168 1860.86 391.278 1860.86 342.056V222.43C1860.86 221.184 1859.71 219.938 1858.57 219.938H1816.96C1815.82 219.938 1814.68 221.184 1814.68 222.43V347.664C1814.11 370.094 1798.71 382.555 1780.47 382.555ZM790.22 396.885C790.22 396.262 791.36 395.639 791.93 396.262C803.902 413.084 827.846 426.168 854.07 426.168C898.537 426.168 943.005 388.162 943.005 320.873C943.005 249.221 898.537 215.577 852.36 215.577C823.285 215.577 801.051 231.153 789.65 249.844C789.079 250.468 788.509 250.468 787.939 249.221L782.808 222.43C782.808 221.184 781.668 220.561 780.528 220.561H746.893C745.752 220.561 744.612 221.807 744.612 223.053V514.642C744.612 515.888 745.752 517.134 746.893 517.134H788.509C789.65 517.134 790.79 515.888 790.79 514.642V396.885H790.22ZM848.369 380.686C818.154 380.686 794.21 358.256 794.21 320.249C794.21 282.243 818.154 259.813 848.369 259.813C866.042 259.813 897.967 272.897 897.967 320.249C897.967 367.601 864.902 380.686 848.369 380.686ZM655.108 154.517C655.108 137.695 667.65 124.611 684.182 124.611C701.855 124.611 713.827 138.318 713.827 154.517C713.827 170.717 701.285 184.424 684.182 184.424C667.65 185.047 655.108 170.717 655.108 154.517ZM705.276 219.938C706.416 219.938 707.556 221.184 707.556 222.43V418.692C707.556 419.938 706.416 421.184 705.276 421.184H663.659C662.519 421.184 661.379 419.938 661.379 418.692V222.43C661.379 221.184 662.519 219.938 663.659 219.938H705.276Z" fill="#9DACFF"/>
<path fill-rule="evenodd" clip-rule="evenodd" d="M302.22 165.109C298.799 163.863 294.808 164.486 290.818 165.732L275.425 171.34V14.9533C275.425 6.85358 269.154 0 261.743 0H59.3598C51.9485 0 45.6775 6.85358 45.6775 14.9533V171.963L30.285 166.355C26.2943 165.109 22.3037 164.486 18.8831 165.732C13.1822 166.978 0.640137 173.209 0.640137 197.508V328.349C2.35042 339.564 9.19154 352.648 24.5841 352.648H75.8925C81.0233 359.502 93.5654 370.716 117.509 372.586C118.079 391.9 128.341 408.1 143.734 414.953V451.713C143.734 452.336 143.163 452.959 142.593 452.959C70.7616 455.452 25.1542 480.374 12.042 488.474C4.0607 493.458 2.35042 504.05 2.35042 510.903V539.564C2.92051 549.533 10.3317 557.632 20.0233 557.632C28.5747 557.632 35.9859 549.533 36.556 540.187C37.1261 530.841 31.4252 523.364 23.4439 520.872C22.8738 520.872 22.3037 520.249 22.3037 519.626V509.034C22.3037 506.542 23.4439 504.05 25.7242 502.804C45.1074 490.966 94.7056 485.358 132.332 482.866H143.163C143.734 482.866 144.304 483.489 144.304 484.112C146.014 517.134 149.435 545.171 150.575 562.617H149.435C143.163 562.617 137.463 570.717 137.463 581.308C137.463 591.9 143.163 600 149.435 600H172.238C178.509 600 184.21 591.9 184.21 581.308C184.21 570.717 178.509 562.617 172.238 562.617H171.098C171.098 562.617 175.089 517.134 177.369 484.112C177.369 483.489 177.939 482.866 178.509 482.866H189.341C226.967 484.735 276.565 490.966 295.949 502.804C298.229 504.05 299.369 506.542 299.369 509.034V519.626C299.369 520.249 298.799 520.872 298.229 520.872C290.248 522.741 284.547 530.841 285.117 540.187C285.687 549.533 293.098 557.632 301.649 557.632C310.771 557.632 318.752 550.156 319.322 539.564V510.903C319.322 504.05 317.612 494.081 309.631 488.474C296.519 480.374 250.341 455.452 179.079 452.336C178.509 452.336 177.939 451.713 177.939 451.09V414.33C193.332 407.477 203.593 391.277 204.163 371.963C227.537 370.093 240.079 358.255 245.78 352.025H297.089C312.481 352.025 319.322 338.941 321.033 327.726V196.885C320.463 172.586 307.921 166.978 302.22 165.109ZM45.6775 300.935L22.3037 320.249C21.7336 320.872 21.1635 320.249 21.1635 319.626V196.885C21.1635 191.9 21.7336 185.67 24.014 186.293L44.5373 193.769C45.1074 193.769 45.6775 195.016 45.6775 195.639V300.935ZM299.369 320.249L275.995 300.935V196.262C275.995 195.639 276.565 195.016 277.135 194.393L297.659 186.916C300.509 186.293 300.509 192.523 300.509 197.508V320.249C300.509 320.249 299.939 320.872 299.369 320.249Z" fill="#9DACFF"/>
<path d="M2444.63 191.277C2444.63 186.916 2445.2 183.177 2446.91 179.439C2448.62 175.701 2450.33 172.586 2452.61 170.093C2454.89 167.601 2457.74 165.109 2461.16 163.863C2464.58 161.994 2468 161.371 2472 161.371C2475.99 161.371 2479.41 161.994 2482.83 163.863C2486.25 165.732 2489.1 167.601 2491.38 170.093C2493.66 172.586 2495.94 175.701 2497.08 179.439C2498.22 183.177 2499.36 186.916 2499.36 191.277C2499.36 195.639 2498.79 199.377 2497.08 203.115C2495.37 206.853 2493.66 209.969 2491.38 212.461C2489.1 214.953 2486.25 217.445 2482.83 218.691C2479.41 220.561 2475.99 221.184 2472 221.184C2468 221.184 2464.58 220.561 2461.16 218.691C2457.74 216.822 2454.89 214.953 2452.61 212.461C2450.33 209.969 2448.05 206.853 2446.91 203.115C2445.2 199.377 2444.63 195.015 2444.63 191.277ZM2449.76 191.277C2449.76 194.392 2450.33 198.131 2451.47 200.623C2452.61 203.738 2454.32 206.23 2456.6 208.723C2458.88 211.215 2461.16 212.461 2464.01 214.33C2466.86 216.199 2469.71 216.199 2472.57 216.199C2475.42 216.199 2478.84 215.576 2481.12 214.33C2483.4 213.084 2486.25 211.215 2488.53 208.723C2490.81 206.23 2491.95 203.738 2493.66 200.623C2494.8 197.508 2495.37 194.392 2495.37 191.277C2495.37 188.162 2494.8 184.424 2493.66 181.931C2492.52 179.439 2490.81 176.324 2488.53 173.832C2486.25 171.339 2483.97 170.093 2481.12 168.224C2478.27 166.355 2475.42 166.355 2472.57 166.355C2469.71 166.355 2466.29 166.978 2464.01 168.224C2461.73 169.47 2458.88 171.339 2456.6 173.832C2454.32 176.324 2453.18 178.816 2451.47 181.931C2449.76 185.047 2449.76 187.539 2449.76 191.277Z" fill="#343E45"/>
<path d="M2461.16 173.832H2471.43C2480.55 173.832 2483.97 177.57 2483.97 183.8C2483.97 190.031 2479.98 193.146 2477.13 193.146L2485.11 207.476V208.099H2478.84L2471.43 193.769H2467.44V208.099H2462.3V173.832H2461.16ZM2471.43 188.162C2475.42 188.162 2478.27 186.916 2478.27 183.177C2478.27 180.062 2476.56 178.816 2471.43 178.816H2466.86V187.539H2471.43V188.162Z" fill="#343E45"/>
</g>
<defs>
<clipPath id="clip0_1116_645">
<rect width="2500" height="600" fill="white"/>
</clipPath>
</defs>
</svg>
